<?xml version="1.0" encoding="UTF-8" standalone="no"?> <!-- Created with Vectornator for iOS (http://vectornator.io/) --><!DOCTYPE svg PUBLIC "-//W3C//DTD SVG 1.1//EN" "http://www.w3.org/Graphics/SVG/1.1/DTD/svg11.dtd">
<svg height="100%" style="fill-rule:evenodd;clip-rule:evenodd;stroke-linecap:round;stroke-linejoin:round;" xmlns:xlink="http://www.w3.org/1999/xlink" xmlns="http://www.w3.org/2000/svg" xml:space="preserve" width="100%" xmlns:vectornator="http://vectornator.io" version="1.1" viewBox="0 0 1137 380">
<metadata>
<vectornator:setting key="DynamicGuides" value="1"/>
<vectornator:setting key="Units" value="Points"/>
<vectornator:setting key="RulersVisible" value="1"/>
<vectornator:setting key="SnapToGuides" value="1"/>
<vectornator:setting key="GridSpacing" value="36"/>
</metadata>
<defs/>
<g id="Untitled" vectornator:layerName="Untitled">
<path d="M845.318+81.846C845.318+51.848+869.636+27.531+899.633+27.531C929.631+27.531+953.949+51.848+953.949+81.846C953.949+111.843+929.631+136.161+899.633+136.161C869.636+136.161+845.318+111.843+845.318+81.846Z" fill-rule="evenodd" fill="#ff6584" opacity="1"/>
<path d="M877+299L879+299L879+299L879+378L879+378L877+378L877+378L877+299L877+299Z" fill-rule="evenodd" fill="#3f3d56" opacity="1"/>
<path d="M897.458+309.067C897.585+336.692+878.15+359.176+878.15+359.176C878.15+359.176+858.508+336.872+858.381+309.247C858.254+281.623+877.689+259.139+877.689+259.139C877.689+259.139+897.33+281.443+897.458+309.067Z" fill-rule="evenodd" fill="#0066cc" opacity="1"/>
<path d="M897.458+309.067C897.585+336.692+878.15+359.176+878.15+359.176C878.15+359.176+858.508+336.872+858.381+309.247C858.254+281.623+877.689+259.139+877.689+259.139C877.689+259.139+897.33+281.443+897.458+309.067Z" fill-rule="evenodd" fill="#000000" opacity="0.1"/>
<path d="M469.774+110.685C469.774+93.427+483.764+79.437+501.022+79.437C518.279+79.437+532.27+93.427+532.27+110.685C532.27+127.943+518.279+141.933+501.022+141.933C483.764+141.933+469.774+127.943+469.774+110.685Z" fill-rule="evenodd" fill="#0066cc" opacity="0.4"/>
<path d="M421.27+125.609C421.27+113.503+431.084+103.689+443.19+103.689C455.296+103.689+465.11+113.503+465.11+125.609C465.11+137.716+455.296+147.53+443.19+147.53C431.084+147.53+421.27+137.716+421.27+125.609Z" fill-rule="evenodd" fill="#0066cc" opacity="0.4"/>
<path d="M186.27+188.609C186.27+176.503+196.084+166.689+208.19+166.689C220.296+166.689+230.11+176.503+230.11+188.609C230.11+200.716+220.296+210.53+208.19+210.53C196.084+210.53+186.27+200.716+186.27+188.609Z" fill-rule="evenodd" fill="#0066cc" opacity="0.4"/>
<path d="M825.064+108.114C825.064+90.857+839.054+76.866+856.312+76.866C873.57+76.866+887.56+90.857+887.56+108.114C887.56+125.372+873.57+139.362+856.312+139.362C839.054+139.362+825.064+125.372+825.064+108.114Z" fill-rule="evenodd" fill="#0066cc" opacity="0.4"/>
<path d="M56.6306+369.215C58.3246+375.477+64.1267+379.355+64.1267+379.355C64.1267+379.355+67.1824+373.081+65.4884+366.819C63.7945+360.557+57.9924+356.679+57.9924+356.679C57.9924+356.679+54.9366+362.954+56.6306+369.215Z" fill-rule="evenodd" fill="#3f3d56" opacity="1"/>
<path d="M59.1197+367.87C63.7679+372.395+64.3357+379.35+64.3357+379.35C64.3357+379.35+57.3672+378.97+52.719+374.445C48.0708+369.92+47.503+362.964+47.503+362.964C47.503+362.964+54.4715+363.345+59.1197+367.87Z" fill-rule="evenodd" fill="#0066cc" opacity="1"/>
<path d="M668.631+369.215C670.325+375.477+676.127+379.355+676.127+379.355C676.127+379.355+679.182+373.081+677.488+366.819C675.794+360.557+669.992+356.679+669.992+356.679C669.992+356.679+666.937+362.954+668.631+369.215Z" fill-rule="evenodd" fill="#3f3d56" opacity="1"/>
<path d="M671.12+367.87C675.768+372.395+676.336+379.35+676.336+379.35C676.336+379.35+669.367+378.97+664.719+374.445C660.071+369.92+659.503+362.964+659.503+362.964C659.503+362.964+666.471+363.345+671.12+367.87Z" fill-rule="evenodd" fill="#0066cc" opacity="1"/>
<path d="M68.137+322.146L64+315.251L102.614+282.153L201.908+282.153L201.908+291.806L166.052+330.421L124.679+338.695L68.137+322.146Z" fill-rule="evenodd" fill="#3f3d56" opacity="1"/>
<path d="M219+301.576L219+279.999L206+279.999L206+286.803L201.908+282.153L168.81+315.251L163.293+320.767L156.398+348.349L168.81+378.688L232.247+378.688L232.247+316.63L219+301.576Z" fill-rule="evenodd" fill="#cccccc" opacity="1"/>
<path d="M64+315.251L168.81+315.251L168.81+315.251L168.81+378.688L168.81+378.688L64+378.688L64+378.688L64+315.251L64+315.251Z" fill-rule="evenodd" fill="#f2f2f2" opacity="1"/>
<path d="M132.264+335.247L154.329+335.247L154.329+335.247L154.329+354.554L154.329+354.554L132.264+354.554L132.264+354.554L132.264+335.247L132.264+335.247Z" fill-rule="evenodd" fill="#3f3d56" opacity="1"/>
<path d="M103.993+334.558L123.3+334.558L123.3+334.558L123.3+378.688L123.3+378.688L103.993+378.688L103.993+378.688L103.993+334.558L103.993+334.558Z" fill-rule="evenodd" fill="#cccccc" opacity="1"/>
<path d="M81.928+341.453L81.928+334.558L73.654+334.558L73.654+341.453L81.238+341.453L81.928+341.453Z" fill-rule="evenodd" fill="#3f3d56" opacity="1"/>
<path d="M81.238+346.969L73.654+346.969L73.654+353.865L81.928+353.865L81.928+346.969L81.238+346.969Z" fill-rule="evenodd" fill="#3f3d56" opacity="1"/>
<path d="M87.4443+334.558L95.7188+334.558L95.7188+334.558L95.7188+341.453L95.7188+341.453L87.4443+341.453L87.4443+341.453L87.4443+334.558L87.4443+334.558Z" fill-rule="evenodd" fill="#3f3d56" opacity="1"/>
<path d="M87.4443+346.969L95.7188+346.969L95.7188+346.969L95.7188+353.865L95.7188+353.865L87.4443+353.865L87.4443+353.865L87.4443+346.969L87.4443+346.969Z" fill-rule="evenodd" fill="#3f3d56" opacity="1"/>
<path d="M198.46+342.143L198.46+335.247L190.185+335.247L190.185+342.143L197.77+342.143L198.46+342.143Z" fill-rule="evenodd" fill="#3f3d56" opacity="1"/>
<path d="M197.77+347.659L190.185+347.659L190.185+354.554L198.46+354.554L198.46+347.659L197.77+347.659Z" fill-rule="evenodd" fill="#3f3d56" opacity="1"/>
<path d="M203.976+335.247L212.251+335.247L212.251+335.247L212.251+342.143L212.251+342.143L203.976+342.143L203.976+342.143L203.976+335.247L203.976+335.247Z" fill-rule="evenodd" fill="#3f3d56" opacity="1"/>
<path d="M203.976+347.659L212.251+347.659L212.251+347.659L212.251+354.554L212.251+354.554L203.976+354.554L203.976+354.554L203.976+347.659L203.976+347.659Z" fill-rule="evenodd" fill="#3f3d56" opacity="1"/>
<path d="M467.137+322.146L463+315.251L501.614+282.153L600.908+282.153L600.908+291.806L565.052+330.421L523.679+338.695L467.137+322.146Z" fill-rule="evenodd" fill="#3f3d56" opacity="1"/>
<path d="M618+301.576L618+279.999L605+279.999L605+286.803L600.908+282.153L567.81+315.251L562.293+320.767L555.398+348.349L567.81+378.688L631.247+378.688L631.247+316.63L618+301.576Z" fill-rule="evenodd" fill="#cccccc" opacity="1"/>
<path d="M463+315.251L567.81+315.251L567.81+315.251L567.81+378.688L567.81+378.688L463+378.688L463+378.688L463+315.251L463+315.251Z" fill-rule="evenodd" fill="#f2f2f2" opacity="1"/>
<path d="M531.264+335.247L553.33+335.247L553.33+335.247L553.33+354.554L553.33+354.554L531.264+354.554L531.264+354.554L531.264+335.247L531.264+335.247Z" fill-rule="evenodd" fill="#3f3d56" opacity="1"/>
<path d="M502.993+334.558L522.3+334.558L522.3+334.558L522.3+378.688L522.3+378.688L502.993+378.688L502.993+378.688L502.993+334.558L502.993+334.558Z" fill-rule="evenodd" fill="#cccccc" opacity="1"/>
<path d="M480.928+341.453L480.928+334.558L472.654+334.558L472.654+341.453L480.238+341.453L480.928+341.453Z" fill-rule="evenodd" fill="#3f3d56" opacity="1"/>
<path d="M480.238+346.969L472.654+346.969L472.654+353.865L480.928+353.865L480.928+346.969L480.238+346.969Z" fill-rule="evenodd" fill="#3f3d56" opacity="1"/>
<path d="M486.444+334.558L494.719+334.558L494.719+334.558L494.719+341.453L494.719+341.453L486.444+341.453L486.444+341.453L486.444+334.558L486.444+334.558Z" fill-rule="evenodd" fill="#3f3d56" opacity="1"/>
<path d="M486.444+346.969L494.719+346.969L494.719+346.969L494.719+353.865L494.719+353.865L486.444+353.865L486.444+353.865L486.444+346.969L486.444+346.969Z" fill-rule="evenodd" fill="#3f3d56" opacity="1"/>
<path d="M597.46+342.143L597.46+335.247L589.185+335.247L589.185+342.143L596.77+342.143L597.46+342.143Z" fill-rule="evenodd" fill="#3f3d56" opacity="1"/>
<path d="M596.77+347.659L589.185+347.659L589.185+354.554L597.46+354.554L597.46+347.659L596.77+347.659Z" fill-rule="evenodd" fill="#3f3d56" opacity="1"/>
<path d="M602.976+335.247L611.251+335.247L611.251+335.247L611.251+342.143L611.251+342.143L602.976+342.143L602.976+342.143L602.976+335.247L602.976+335.247Z" fill-rule="evenodd" fill="#3f3d56" opacity="1"/>
<path d="M602.976+347.659L611.251+347.659L611.251+347.659L611.251+354.554L611.251+354.554L602.976+354.554L602.976+354.554L602.976+347.659L602.976+347.659Z" fill-rule="evenodd" fill="#3f3d56" opacity="1"/>
<path d="M280.515+206.304L273.62+200.787L312.234+166.31L410.148+166.31L410.148+196.65L346.711+239.402L280.515+206.304Z" fill-rule="evenodd" fill="#3f3d56" opacity="1"/>
<path d="M428+185.65L428+166.999L415+166.999L415+171.567L410.148+166.31L378.429+200.787L366.018+209.062L346.773+349.665L375.796+378.688L443.246+378.688L443.246+202.166L428+185.65Z" fill-rule="evenodd" fill="#cccccc" opacity="1"/>
<path d="M273.62+200.787L378.429+200.787L378.429+200.787L378.429+378.688L378.429+378.688L273.62+378.688L273.62+378.688L273.62+200.787L273.62+200.787Z" fill-rule="evenodd" fill="#f2f2f2" opacity="1"/>
<path d="M314.302+335.247L333.609+335.247L333.609+335.247L333.609+378.688L333.609+378.688L314.302+378.688L314.302+378.688L314.302+335.247L314.302+335.247Z" fill-rule="evenodd" fill="#cccccc" opacity="1"/>
<path d="M293.616+347.659L293.616+340.764L285.342+340.764L285.342+347.659L292.927+347.659L293.616+347.659Z" fill-rule="evenodd" fill="#3f3d56" opacity="1"/>
<path d="M292.927+353.175L285.342+353.175L285.342+360.071L293.616+360.071L293.616+353.175L292.927+353.175Z" fill-rule="evenodd" fill="#3f3d56" opacity="1"/>
<path d="M299.132+340.764L307.407+340.764L307.407+340.764L307.407+347.659L307.407+347.659L299.132+347.659L299.132+347.659L299.132+340.764L299.132+340.764Z" fill-rule="evenodd" fill="#3f3d56" opacity="1"/>
<path d="M299.132+353.175L307.407+353.175L307.407+353.175L307.407+360.071L307.407+360.071L299.132+360.071L299.132+360.071L299.132+353.175L299.132+353.175Z" fill-rule="evenodd" fill="#3f3d56" opacity="1"/>
<path d="M350.158+347.659L350.158+340.764L341.884+340.764L341.884+347.659L349.469+347.659L350.158+347.659Z" fill-rule="evenodd" fill="#3f3d56" opacity="1"/>
<path d="M349.469+353.175L341.884+353.175L341.884+360.071L350.158+360.071L350.158+353.175L349.469+353.175Z" fill-rule="evenodd" fill="#3f3d56" opacity="1"/>
<path d="M355.675+340.764L363.949+340.764L363.949+340.764L363.949+347.659L363.949+347.659L355.675+347.659L355.675+347.659L355.675+340.764L355.675+340.764Z" fill-rule="evenodd" fill="#3f3d56" opacity="1"/>
<path d="M355.675+353.175L363.949+353.175L363.949+353.175L363.949+360.071L363.949+360.071L355.675+360.071L355.675+360.071L355.675+353.175L355.675+353.175Z" fill-rule="evenodd" fill="#3f3d56" opacity="1"/>
<path d="M408.079+209.751L408.079+202.856L399.805+202.856L399.805+209.751L407.39+209.751L408.079+209.751Z" fill-rule="evenodd" fill="#3f3d56" opacity="1"/>
<path d="M407.39+215.268L399.805+215.268L399.805+222.163L408.079+222.163L408.079+215.268L407.39+215.268Z" fill-rule="evenodd" fill="#3f3d56" opacity="1"/>
<path d="M413.596+202.856L421.87+202.856L421.87+202.856L421.87+209.751L421.87+209.751L413.596+209.751L413.596+209.751L413.596+202.856L413.596+202.856Z" fill-rule="evenodd" fill="#3f3d56" opacity="1"/>
<path d="M413.596+215.268L421.87+215.268L421.87+215.268L421.87+222.163L421.87+222.163L413.596+222.163L413.596+222.163L413.596+215.268L413.596+215.268Z" fill-rule="evenodd" fill="#3f3d56" opacity="1"/>
<path d="M408.079+248.366L408.079+241.47L399.805+241.47L399.805+248.366L407.39+248.366L408.079+248.366Z" fill-rule="evenodd" fill="#3f3d56" opacity="1"/>
<path d="M407.39+253.882L399.805+253.882L399.805+260.777L408.079+260.777L408.079+253.882L407.39+253.882Z" fill-rule="evenodd" fill="#3f3d56" opacity="1"/>
<path d="M413.596+241.47L421.87+241.47L421.87+241.47L421.87+248.366L421.87+248.366L413.596+248.366L413.596+248.366L413.596+241.47L413.596+241.47Z" fill-rule="evenodd" fill="#3f3d56" opacity="1"/>
<path d="M413.596+253.882L421.87+253.882L421.87+253.882L421.87+260.777L421.87+260.777L413.596+260.777L413.596+260.777L413.596+253.882L413.596+253.882Z" fill-rule="evenodd" fill="#3f3d56" opacity="1"/>
<path d="M408.079+286.98L408.079+280.084L399.805+280.084L399.805+286.98L407.39+286.98L408.079+286.98Z" fill-rule="evenodd" fill="#3f3d56" opacity="1"/>
<path d="M407.39+292.496L399.805+292.496L399.805+299.391L408.079+299.391L408.079+292.496L407.39+292.496Z" fill-rule="evenodd" fill="#3f3d56" opacity="1"/>
<path d="M413.596+280.084L421.87+280.084L421.87+280.084L421.87+286.98L421.87+286.98L413.596+286.98L413.596+286.98L413.596+280.084L413.596+280.084Z" fill-rule="evenodd" fill="#3f3d56" opacity="1"/>
<path d="M413.596+292.496L421.87+292.496L421.87+292.496L421.87+299.391L421.87+299.391L413.596+299.391L413.596+299.391L413.596+292.496L413.596+292.496Z" fill-rule="evenodd" fill="#3f3d56" opacity="1"/>
<path d="M408.079+325.594L408.079+318.698L399.805+318.698L399.805+325.594L407.39+325.594L408.079+325.594Z" fill-rule="evenodd" fill="#3f3d56" opacity="1"/>
<path d="M407.39+331.11L399.805+331.11L399.805+338.005L408.079+338.005L408.079+331.11L407.39+331.11Z" fill-rule="evenodd" fill="#3f3d56" opacity="1"/>
<path d="M413.596+318.698L421.87+318.698L421.87+318.698L421.87+325.594L421.87+325.594L413.596+325.594L413.596+325.594L413.596+318.698L413.596+318.698Z" fill-rule="evenodd" fill="#3f3d56" opacity="1"/>
<path d="M413.596+331.11L421.87+331.11L421.87+331.11L421.87+338.005L421.87+338.005L413.596+338.005L413.596+338.005L413.596+331.11L413.596+331.11Z" fill-rule="evenodd" fill="#3f3d56" opacity="1"/>
<path d="M285.342+209.751L365.328+209.751L365.328+209.751L365.328+226.3L365.328+226.3L285.342+226.3L285.342+226.3L285.342+209.751L285.342+209.751Z" fill-rule="evenodd" fill="#3f3d56" opacity="1"/>
<path d="M285.342+242.849L365.328+242.849L365.328+242.849L365.328+259.398L365.328+259.398L285.342+259.398L285.342+259.398L285.342+242.849L285.342+242.849Z" fill-rule="evenodd" fill="#3f3d56" opacity="1"/>
<path d="M285.342+275.947L365.328+275.947L365.328+275.947L365.328+292.496L365.328+292.496L285.342+292.496L285.342+292.496L285.342+275.947L285.342+275.947Z" fill-rule="evenodd" fill="#3f3d56" opacity="1"/>
<path d="M285.342+309.045L365.328+309.045L365.328+309.045L365.328+325.594L365.328+325.594L285.342+325.594L285.342+325.594L285.342+309.045L285.342+309.045Z" fill-rule="evenodd" fill="#3f3d56" opacity="1"/>
<path d="M683.515+206.304L676.62+200.787L715.234+166.31L813.148+166.31L813.148+196.65L749.711+239.402L683.515+206.304Z" fill-rule="evenodd" fill="#3f3d56" opacity="1"/>
<path d="M831+185.65L831+166.999L818+166.999L818+171.567L813.148+166.31L781.429+200.787L769.018+209.062L749.773+349.665L778.796+378.688L846.246+378.688L846.246+202.166L831+185.65Z" fill-rule="evenodd" fill="#cccccc" opacity="1"/>
<path d="M676.62+200.787L781.429+200.787L781.429+200.787L781.429+378.688L781.429+378.688L676.62+378.688L676.62+378.688L676.62+200.787L676.62+200.787Z" fill-rule="evenodd" fill="#f2f2f2" opacity="1"/>
<path d="M717.302+335.247L736.609+335.247L736.609+335.247L736.609+378.688L736.609+378.688L717.302+378.688L717.302+378.688L717.302+335.247L717.302+335.247Z" fill-rule="evenodd" fill="#cccccc" opacity="1"/>
<path d="M696.616+347.659L696.616+340.764L688.342+340.764L688.342+347.659L695.927+347.659L696.616+347.659Z" fill-rule="evenodd" fill="#3f3d56" opacity="1"/>
<path d="M695.927+353.175L688.342+353.175L688.342+360.071L696.616+360.071L696.616+353.175L695.927+353.175Z" fill-rule="evenodd" fill="#3f3d56" opacity="1"/>
<path d="M702.132+340.764L710.407+340.764L710.407+340.764L710.407+347.659L710.407+347.659L702.132+347.659L702.132+347.659L702.132+340.764L702.132+340.764Z" fill-rule="evenodd" fill="#3f3d56" opacity="1"/>
<path d="M702.132+353.175L710.407+353.175L710.407+353.175L710.407+360.071L710.407+360.071L702.132+360.071L702.132+360.071L702.132+353.175L702.132+353.175Z" fill-rule="evenodd" fill="#3f3d56" opacity="1"/>
<path d="M753.158+347.659L753.158+340.764L744.884+340.764L744.884+347.659L752.469+347.659L753.158+347.659Z" fill-rule="evenodd" fill="#3f3d56" opacity="1"/>
<path d="M752.469+353.175L744.884+353.175L744.884+360.071L753.158+360.071L753.158+353.175L752.469+353.175Z" fill-rule="evenodd" fill="#3f3d56" opacity="1"/>
<path d="M758.675+340.764L766.949+340.764L766.949+340.764L766.949+347.659L766.949+347.659L758.675+347.659L758.675+347.659L758.675+340.764L758.675+340.764Z" fill-rule="evenodd" fill="#3f3d56" opacity="1"/>
<path d="M758.675+353.175L766.949+353.175L766.949+353.175L766.949+360.071L766.949+360.071L758.675+360.071L758.675+360.071L758.675+353.175L758.675+353.175Z" fill-rule="evenodd" fill="#3f3d56" opacity="1"/>
<path d="M811.079+209.751L811.079+202.856L802.805+202.856L802.805+209.751L810.39+209.751L811.079+209.751Z" fill-rule="evenodd" fill="#3f3d56" opacity="1"/>
<path d="M810.39+215.268L802.805+215.268L802.805+222.163L811.079+222.163L811.079+215.268L810.39+215.268Z" fill-rule="evenodd" fill="#3f3d56" opacity="1"/>
<path d="M816.596+202.856L824.87+202.856L824.87+202.856L824.87+209.751L824.87+209.751L816.596+209.751L816.596+209.751L816.596+202.856L816.596+202.856Z" fill-rule="evenodd" fill="#3f3d56" opacity="1"/>
<path d="M816.596+215.268L824.87+215.268L824.87+215.268L824.87+222.163L824.87+222.163L816.596+222.163L816.596+222.163L816.596+215.268L816.596+215.268Z" fill-rule="evenodd" fill="#3f3d56" opacity="1"/>
<path d="M811.079+248.366L811.079+241.47L802.805+241.47L802.805+248.366L810.39+248.366L811.079+248.366Z" fill-rule="evenodd" fill="#3f3d56" opacity="1"/>
<path d="M810.39+253.882L802.805+253.882L802.805+260.777L811.079+260.777L811.079+253.882L810.39+253.882Z" fill-rule="evenodd" fill="#3f3d56" opacity="1"/>
<path d="M816.596+241.47L824.87+241.47L824.87+241.47L824.87+248.366L824.87+248.366L816.596+248.366L816.596+248.366L816.596+241.47L816.596+241.47Z" fill-rule="evenodd" fill="#3f3d56" opacity="1"/>
<path d="M816.596+253.882L824.87+253.882L824.87+253.882L824.87+260.777L824.87+260.777L816.596+260.777L816.596+260.777L816.596+253.882L816.596+253.882Z" fill-rule="evenodd" fill="#3f3d56" opacity="1"/>
<path d="M811.079+286.98L811.079+280.084L802.805+280.084L802.805+286.98L810.39+286.98L811.079+286.98Z" fill-rule="evenodd" fill="#3f3d56" opacity="1"/>
<path d="M810.39+292.496L802.805+292.496L802.805+299.391L811.079+299.391L811.079+292.496L810.39+292.496Z" fill-rule="evenodd" fill="#3f3d56" opacity="1"/>
<path d="M816.596+280.084L824.87+280.084L824.87+280.084L824.87+286.98L824.87+286.98L816.596+286.98L816.596+286.98L816.596+280.084L816.596+280.084Z" fill-rule="evenodd" fill="#3f3d56" opacity="1"/>
<path d="M816.596+292.496L824.87+292.496L824.87+292.496L824.87+299.391L824.87+299.391L816.596+299.391L816.596+299.391L816.596+292.496L816.596+292.496Z" fill-rule="evenodd" fill="#3f3d56" opacity="1"/>
<path d="M811.079+325.594L811.079+318.698L802.805+318.698L802.805+325.594L810.39+325.594L811.079+325.594Z" fill-rule="evenodd" fill="#3f3d56" opacity="1"/>
<path d="M810.39+331.11L802.805+331.11L802.805+338.005L811.079+338.005L811.079+331.11L810.39+331.11Z" fill-rule="evenodd" fill="#3f3d56" opacity="1"/>
<path d="M816.596+318.698L824.87+318.698L824.87+318.698L824.87+325.594L824.87+325.594L816.596+325.594L816.596+325.594L816.596+318.698L816.596+318.698Z" fill-rule="evenodd" fill="#3f3d56" opacity="1"/>
<path d="M816.596+331.11L824.87+331.11L824.87+331.11L824.87+338.005L824.87+338.005L816.596+338.005L816.596+338.005L816.596+331.11L816.596+331.11Z" fill-rule="evenodd" fill="#3f3d56" opacity="1"/>
<path d="M688.342+209.751L768.328+209.751L768.328+209.751L768.328+226.3L768.328+226.3L688.342+226.3L688.342+226.3L688.342+209.751L688.342+209.751Z" fill-rule="evenodd" fill="#3f3d56" opacity="1"/>
<path d="M688.342+242.849L768.328+242.849L768.328+242.849L768.328+259.398L768.328+259.398L688.342+259.398L688.342+259.398L688.342+242.849L688.342+242.849Z" fill-rule="evenodd" fill="#3f3d56" opacity="1"/>
<path d="M688.342+275.947L768.328+275.947L768.328+275.947L768.328+292.496L768.328+292.496L688.342+292.496L688.342+292.496L688.342+275.947L688.342+275.947Z" fill-rule="evenodd" fill="#3f3d56" opacity="1"/>
<path d="M688.342+309.045L768.328+309.045L768.328+309.045L768.328+325.594L768.328+325.594L688.342+325.594L688.342+325.594L688.342+309.045L688.342+309.045Z" fill-rule="evenodd" fill="#3f3d56" opacity="1"/>
<path d="M904.515+206.304L897.62+200.787L936.234+166.31L1034.15+166.31L1034.15+196.65L970.711+239.402L904.515+206.304Z" fill-rule="evenodd" fill="#3f3d56" opacity="1"/>
<path d="M1052+185.65L1052+166.999L1039+166.999L1039+171.567L1034.15+166.31L1002.43+200.787L990.018+209.062L970.773+349.665L999.796+378.688L1067.25+378.688L1067.25+202.166L1052+185.65Z" fill-rule="evenodd" fill="#cccccc" opacity="1"/>
<path d="M897.62+200.787L1002.43+200.787L1002.43+200.787L1002.43+378.688L1002.43+378.688L897.62+378.688L897.62+378.688L897.62+200.787L897.62+200.787Z" fill-rule="evenodd" fill="#f2f2f2" opacity="1"/>
<path d="M938.302+335.247L957.609+335.247L957.609+335.247L957.609+378.688L957.609+378.688L938.302+378.688L938.302+378.688L938.302+335.247L938.302+335.247Z" fill-rule="evenodd" fill="#cccccc" opacity="1"/>
<path d="M917.616+347.659L917.616+340.764L909.342+340.764L909.342+347.659L916.927+347.659L917.616+347.659Z" fill-rule="evenodd" fill="#3f3d56" opacity="1"/>
<path d="M916.927+353.175L909.342+353.175L909.342+360.071L917.616+360.071L917.616+353.175L916.927+353.175Z" fill-rule="evenodd" fill="#3f3d56" opacity="1"/>
<path d="M923.132+340.764L931.407+340.764L931.407+340.764L931.407+347.659L931.407+347.659L923.132+347.659L923.132+347.659L923.132+340.764L923.132+340.764Z" fill-rule="evenodd" fill="#3f3d56" opacity="1"/>
<path d="M923.132+353.175L931.407+353.175L931.407+353.175L931.407+360.071L931.407+360.071L923.132+360.071L923.132+360.071L923.132+353.175L923.132+353.175Z" fill-rule="evenodd" fill="#3f3d56" opacity="1"/>
<path d="M974.158+347.659L974.158+340.764L965.884+340.764L965.884+347.659L973.469+347.659L974.158+347.659Z" fill-rule="evenodd" fill="#3f3d56" opacity="1"/>
<path d="M973.469+353.175L965.884+353.175L965.884+360.071L974.158+360.071L974.158+353.175L973.469+353.175Z" fill-rule="evenodd" fill="#3f3d56" opacity="1"/>
<path d="M979.675+340.764L987.949+340.764L987.949+340.764L987.949+347.659L987.949+347.659L979.675+347.659L979.675+347.659L979.675+340.764L979.675+340.764Z" fill-rule="evenodd" fill="#3f3d56" opacity="1"/>
<path d="M979.675+353.175L987.949+353.175L987.949+353.175L987.949+360.071L987.949+360.071L979.675+360.071L979.675+360.071L979.675+353.175L979.675+353.175Z" fill-rule="evenodd" fill="#3f3d56" opacity="1"/>
<path d="M1032.08+209.751L1032.08+202.856L1023.8+202.856L1023.8+209.751L1031.39+209.751L1032.08+209.751Z" fill-rule="evenodd" fill="#3f3d56" opacity="1"/>
<path d="M1031.39+215.268L1023.8+215.268L1023.8+222.163L1032.08+222.163L1032.08+215.268L1031.39+215.268Z" fill-rule="evenodd" fill="#3f3d56" opacity="1"/>
<path d="M1037.6+202.856L1045.87+202.856L1045.87+202.856L1045.87+209.751L1045.87+209.751L1037.6+209.751L1037.6+209.751L1037.6+202.856L1037.6+202.856Z" fill-rule="evenodd" fill="#3f3d56" opacity="1"/>
<path d="M1037.6+215.268L1045.87+215.268L1045.87+215.268L1045.87+222.163L1045.87+222.163L1037.6+222.163L1037.6+222.163L1037.6+215.268L1037.6+215.268Z" fill-rule="evenodd" fill="#3f3d56" opacity="1"/>
<path d="M1032.08+248.366L1032.08+241.47L1023.8+241.47L1023.8+248.366L1031.39+248.366L1032.08+248.366Z" fill-rule="evenodd" fill="#3f3d56" opacity="1"/>
<path d="M1031.39+253.882L1023.8+253.882L1023.8+260.777L1032.08+260.777L1032.08+253.882L1031.39+253.882Z" fill-rule="evenodd" fill="#3f3d56" opacity="1"/>
<path d="M1037.6+241.47L1045.87+241.47L1045.87+241.47L1045.87+248.366L1045.87+248.366L1037.6+248.366L1037.6+248.366L1037.6+241.47L1037.6+241.47Z" fill-rule="evenodd" fill="#3f3d56" opacity="1"/>
<path d="M1037.6+253.882L1045.87+253.882L1045.87+253.882L1045.87+260.777L1045.87+260.777L1037.6+260.777L1037.6+260.777L1037.6+253.882L1037.6+253.882Z" fill-rule="evenodd" fill="#3f3d56" opacity="1"/>
<path d="M1032.08+286.98L1032.08+280.084L1023.8+280.084L1023.8+286.98L1031.39+286.98L1032.08+286.98Z" fill-rule="evenodd" fill="#3f3d56" opacity="1"/>
<path d="M1031.39+292.496L1023.8+292.496L1023.8+299.391L1032.08+299.391L1032.08+292.496L1031.39+292.496Z" fill-rule="evenodd" fill="#3f3d56" opacity="1"/>
<path d="M1037.6+280.084L1045.87+280.084L1045.87+280.084L1045.87+286.98L1045.87+286.98L1037.6+286.98L1037.6+286.98L1037.6+280.084L1037.6+280.084Z" fill-rule="evenodd" fill="#3f3d56" opacity="1"/>
<path d="M1037.6+292.496L1045.87+292.496L1045.87+292.496L1045.87+299.391L1045.87+299.391L1037.6+299.391L1037.6+299.391L1037.6+292.496L1037.6+292.496Z" fill-rule="evenodd" fill="#3f3d56" opacity="1"/>
<path d="M1032.08+325.594L1032.08+318.698L1023.8+318.698L1023.8+325.594L1031.39+325.594L1032.08+325.594Z" fill-rule="evenodd" fill="#3f3d56" opacity="1"/>
<path d="M1031.39+331.11L1023.8+331.11L1023.8+338.005L1032.08+338.005L1032.08+331.11L1031.39+331.11Z" fill-rule="evenodd" fill="#3f3d56" opacity="1"/>
<path d="M1037.6+318.698L1045.87+318.698L1045.87+318.698L1045.87+325.594L1045.87+325.594L1037.6+325.594L1037.6+325.594L1037.6+318.698L1037.6+318.698Z" fill-rule="evenodd" fill="#3f3d56" opacity="1"/>
<path d="M1037.6+331.11L1045.87+331.11L1045.87+331.11L1045.87+338.005L1045.87+338.005L1037.6+338.005L1037.6+338.005L1037.6+331.11L1037.6+331.11Z" fill-rule="evenodd" fill="#3f3d56" opacity="1"/>
<path d="M909.342+209.751L989.328+209.751L989.328+209.751L989.328+226.3L989.328+226.3L909.342+226.3L909.342+226.3L909.342+209.751L909.342+209.751Z" fill-rule="evenodd" fill="#3f3d56" opacity="1"/>
<path d="M909.342+242.849L989.328+242.849L989.328+242.849L989.328+259.398L989.328+259.398L909.342+259.398L909.342+259.398L909.342+242.849L909.342+242.849Z" fill-rule="evenodd" fill="#3f3d56" opacity="1"/>
<path d="M909.342+275.947L989.328+275.947L989.328+275.947L989.328+292.496L989.328+292.496L909.342+292.496L909.342+292.496L909.342+275.947L909.342+275.947Z" fill-rule="evenodd" fill="#3f3d56" opacity="1"/>
<path d="M909.342+309.045L989.328+309.045L989.328+309.045L989.328+325.594L989.328+325.594L909.342+325.594L909.342+325.594L909.342+309.045L909.342+309.045Z" fill-rule="evenodd" fill="#3f3d56" opacity="1"/>
<path d="M0+378L1137+378L1137+378L1137+380L1137+380L0+380L0+380L0+378L0+378Z" fill-rule="evenodd" fill="#3f3d56" opacity="1"/>
<path d="M252+299L254+299L254+299L254+378L254+378L252+378L252+378L252+299L252+299Z" fill-rule="evenodd" fill="#3f3d56" opacity="1"/>
<path d="M272.458+309.067C272.585+336.692+253.15+359.176+253.15+359.176C253.15+359.176+233.508+336.872+233.381+309.247C233.254+281.623+252.689+259.139+252.689+259.139C252.689+259.139+272.33+281.443+272.458+309.067Z" fill-rule="evenodd" fill="#0066cc" opacity="1"/>
<path d="M452+299L454+299L454+299L454+378L454+378L452+378L452+378L452+299L452+299Z" fill-rule="evenodd" fill="#3f3d56" opacity="1"/>
<path d="M472.458+309.067C472.585+336.692+453.15+359.176+453.15+359.176C453.15+359.176+433.508+336.872+433.381+309.247C433.254+281.623+452.689+259.139+452.689+259.139C452.689+259.139+472.33+281.443+472.458+309.067Z" fill-rule="evenodd" fill="#0066cc" opacity="1"/>
<path d="M851+299L853+299L853+299L853+378L853+378L851+378L851+378L851+299L851+299Z" fill-rule="evenodd" fill="#3f3d56" opacity="1"/>
<path d="M871.458+309.067C871.585+336.692+852.15+359.176+852.15+359.176C852.15+359.176+832.508+336.872+832.381+309.247C832.254+281.623+851.689+259.139+851.689+259.139C851.689+259.139+871.33+281.443+871.458+309.067Z" fill-rule="evenodd" fill="#0066cc" opacity="1"/>
</g>
</svg>
