<?xml version="1.0" encoding="UTF-8" standalone="no"?> <!-- Created with Vectornator for iOS (http://vectornator.io/) --><!DOCTYPE svg PUBLIC "-//W3C//DTD SVG 1.1//EN" "http://www.w3.org/Graphics/SVG/1.1/DTD/svg11.dtd">
<svg style="fill-rule:evenodd;clip-rule:evenodd;stroke-linecap:round;stroke-linejoin:round;" xmlns:vectornator="http://vectornator.io" xmlns:xlink="http://www.w3.org/1999/xlink" xmlns="http://www.w3.org/2000/svg" xml:space="preserve" version="1.1" viewBox="0 0 1137 518.057">
<metadata>
<vectornator:setting key="DynamicGuides" value="1"/>
<vectornator:setting key="Units" value="Points"/>
<vectornator:setting key="RulersVisible" value="1"/>
<vectornator:setting key="SnapToGuides" value="1"/>
<vectornator:setting key="GridSpacing" value="36"/>
</metadata>
<defs/>
<g id="Untitled" vectornator:layerName="Untitled">
<path d="M845.318+219.903C845.318+189.905+869.636+165.588+899.633+165.588C929.631+165.588+953.949+189.905+953.949+219.903C953.949+249.9+929.631+274.218+899.633+274.218C869.636+274.218+845.318+249.9+845.318+219.903Z" opacity="1" fill="#ff6584"/>
<path d="M877+437.057L879+437.057L879+437.057L879+516.057L879+516.057L877+516.057L877+516.057L877+437.057L877+437.057Z" opacity="1" fill="#3f3d56"/>
<path d="M897.458+447.124C897.585+474.749+878.15+497.233+878.15+497.233C878.15+497.233+858.508+474.929+858.381+447.304C858.254+419.68+877.689+397.196+877.689+397.196C877.689+397.196+897.33+419.5+897.458+447.124Z" opacity="1" fill="#0066cc"/>
<path d="M897.458+447.124C897.585+474.749+878.15+497.233+878.15+497.233C878.15+497.233+858.508+474.929+858.381+447.304C858.254+419.68+877.689+397.196+877.689+397.196C877.689+397.196+897.33+419.5+897.458+447.124Z" opacity="0.1" fill="#000000"/>
<path d="M469.774+248.742C469.774+231.484+483.764+217.494+501.022+217.494C518.279+217.494+532.27+231.484+532.27+248.742C532.27+266+518.279+279.99+501.022+279.99C483.764+279.99+469.774+266+469.774+248.742Z" opacity="0.4" fill="#0066cc"/>
<path d="M421.27+263.666C421.27+251.56+431.084+241.746+443.19+241.746C455.296+241.746+465.11+251.56+465.11+263.666C465.11+275.773+455.296+285.587+443.19+285.587C431.084+285.587+421.27+275.773+421.27+263.666Z" opacity="0.4" fill="#0066cc"/>
<path d="M186.27+326.666C186.27+314.56+196.084+304.746+208.19+304.746C220.296+304.746+230.11+314.56+230.11+326.666C230.11+338.773+220.296+348.587+208.19+348.587C196.084+348.587+186.27+338.773+186.27+326.666Z" opacity="0.4" fill="#0066cc"/>
<path d="M825.064+246.171C825.064+228.914+839.054+214.923+856.312+214.923C873.57+214.923+887.56+228.914+887.56+246.171C887.56+263.429+873.57+277.419+856.312+277.419C839.054+277.419+825.064+263.429+825.064+246.171Z" opacity="0.4" fill="#0066cc"/>
<path d="M56.6306+507.272C58.3246+513.534+64.1267+517.412+64.1267+517.412C64.1267+517.412+67.1824+511.138+65.4884+504.876C63.7945+498.614+57.9924+494.736+57.9924+494.736C57.9924+494.736+54.9366+501.011+56.6306+507.272Z" opacity="1" fill="#3f3d56"/>
<path d="M59.1197+505.927C63.7679+510.452+64.3357+517.407+64.3357+517.407C64.3357+517.407+57.3672+517.027+52.719+512.502C48.0708+507.977+47.503+501.021+47.503+501.021C47.503+501.021+54.4715+501.402+59.1197+505.927Z" opacity="1" fill="#0066cc"/>
<path d="M668.631+507.272C670.325+513.534+676.127+517.412+676.127+517.412C676.127+517.412+679.182+511.138+677.488+504.876C675.794+498.614+669.992+494.736+669.992+494.736C669.992+494.736+666.937+501.011+668.631+507.272Z" opacity="1" fill="#3f3d56"/>
<path d="M671.12+505.927C675.768+510.452+676.336+517.407+676.336+517.407C676.336+517.407+669.367+517.027+664.719+512.502C660.071+507.977+659.503+501.021+659.503+501.021C659.503+501.021+666.471+501.402+671.12+505.927Z" opacity="1" fill="#0066cc"/>
<path d="M68.137+460.203L64+453.308L102.614+420.21L201.908+420.21L201.908+429.863L166.052+468.478L124.679+476.752L68.137+460.203Z" opacity="1" fill="#3f3d56"/>
<path d="M219+439.633L219+418.056L206+418.056L206+424.86L201.908+420.21L168.81+453.308L163.293+458.824L156.398+486.406L168.81+516.745L232.247+516.745L232.247+454.687L219+439.633Z" opacity="1" fill="#cccccc"/>
<path d="M64+453.308L168.81+453.308L168.81+453.308L168.81+516.745L168.81+516.745L64+516.745L64+516.745L64+453.308L64+453.308Z" opacity="1" fill="#f2f2f2"/>
<path d="M132.264+473.304L154.329+473.304L154.329+473.304L154.329+492.611L154.329+492.611L132.264+492.611L132.264+492.611L132.264+473.304L132.264+473.304Z" opacity="1" fill="#3f3d56"/>
<path d="M103.993+472.615L123.3+472.615L123.3+472.615L123.3+516.745L123.3+516.745L103.993+516.745L103.993+516.745L103.993+472.615L103.993+472.615Z" opacity="1" fill="#cccccc"/>
<path d="M81.928+479.51L81.928+472.615L73.654+472.615L73.654+479.51L81.238+479.51L81.928+479.51Z" opacity="1" fill="#3f3d56"/>
<path d="M81.238+485.026L73.654+485.026L73.654+491.922L81.928+491.922L81.928+485.026L81.238+485.026Z" opacity="1" fill="#3f3d56"/>
<path d="M87.4443+472.615L95.7188+472.615L95.7188+472.615L95.7188+479.51L95.7188+479.51L87.4443+479.51L87.4443+479.51L87.4443+472.615L87.4443+472.615Z" opacity="1" fill="#3f3d56"/>
<path d="M87.4443+485.026L95.7188+485.026L95.7188+485.026L95.7188+491.922L95.7188+491.922L87.4443+491.922L87.4443+491.922L87.4443+485.026L87.4443+485.026Z" opacity="1" fill="#3f3d56"/>
<path d="M198.46+480.2L198.46+473.304L190.185+473.304L190.185+480.2L197.77+480.2L198.46+480.2Z" opacity="1" fill="#3f3d56"/>
<path d="M197.77+485.716L190.185+485.716L190.185+492.611L198.46+492.611L198.46+485.716L197.77+485.716Z" opacity="1" fill="#3f3d56"/>
<path d="M203.976+473.304L212.251+473.304L212.251+473.304L212.251+480.2L212.251+480.2L203.976+480.2L203.976+480.2L203.976+473.304L203.976+473.304Z" opacity="1" fill="#3f3d56"/>
<path d="M203.976+485.716L212.251+485.716L212.251+485.716L212.251+492.611L212.251+492.611L203.976+492.611L203.976+492.611L203.976+485.716L203.976+485.716Z" opacity="1" fill="#3f3d56"/>
<path d="M467.137+460.203L463+453.308L501.614+420.21L600.908+420.21L600.908+429.863L565.052+468.478L523.679+476.752L467.137+460.203Z" opacity="1" fill="#3f3d56"/>
<path d="M618+439.633L618+418.056L605+418.056L605+424.86L600.908+420.21L567.81+453.308L562.293+458.824L555.398+486.406L567.81+516.745L631.247+516.745L631.247+454.687L618+439.633Z" opacity="1" fill="#cccccc"/>
<path d="M463+453.308L567.81+453.308L567.81+453.308L567.81+516.745L567.81+516.745L463+516.745L463+516.745L463+453.308L463+453.308Z" opacity="1" fill="#f2f2f2"/>
<path d="M531.264+473.304L553.33+473.304L553.33+473.304L553.33+492.611L553.33+492.611L531.264+492.611L531.264+492.611L531.264+473.304L531.264+473.304Z" opacity="1" fill="#3f3d56"/>
<path d="M502.993+472.615L522.3+472.615L522.3+472.615L522.3+516.745L522.3+516.745L502.993+516.745L502.993+516.745L502.993+472.615L502.993+472.615Z" opacity="1" fill="#cccccc"/>
<path d="M480.928+479.51L480.928+472.615L472.654+472.615L472.654+479.51L480.238+479.51L480.928+479.51Z" opacity="1" fill="#3f3d56"/>
<path d="M480.238+485.026L472.654+485.026L472.654+491.922L480.928+491.922L480.928+485.026L480.238+485.026Z" opacity="1" fill="#3f3d56"/>
<path d="M486.444+472.615L494.719+472.615L494.719+472.615L494.719+479.51L494.719+479.51L486.444+479.51L486.444+479.51L486.444+472.615L486.444+472.615Z" opacity="1" fill="#3f3d56"/>
<path d="M486.444+485.026L494.719+485.026L494.719+485.026L494.719+491.922L494.719+491.922L486.444+491.922L486.444+491.922L486.444+485.026L486.444+485.026Z" opacity="1" fill="#3f3d56"/>
<path d="M597.46+480.2L597.46+473.304L589.185+473.304L589.185+480.2L596.77+480.2L597.46+480.2Z" opacity="1" fill="#3f3d56"/>
<path d="M596.77+485.716L589.185+485.716L589.185+492.611L597.46+492.611L597.46+485.716L596.77+485.716Z" opacity="1" fill="#3f3d56"/>
<path d="M602.976+473.304L611.251+473.304L611.251+473.304L611.251+480.2L611.251+480.2L602.976+480.2L602.976+480.2L602.976+473.304L602.976+473.304Z" opacity="1" fill="#3f3d56"/>
<path d="M602.976+485.716L611.251+485.716L611.251+485.716L611.251+492.611L611.251+492.611L602.976+492.611L602.976+492.611L602.976+485.716L602.976+485.716Z" opacity="1" fill="#3f3d56"/>
<path d="M280.515+344.361L273.62+338.844L312.234+304.367L410.148+304.367L410.148+334.707L346.711+377.459L280.515+344.361Z" opacity="1" fill="#3f3d56"/>
<path d="M428+323.707L428+305.056L415+305.056L415+309.624L410.148+304.367L378.429+338.844L366.018+347.119L346.773+487.722L375.796+516.745L443.246+516.745L443.246+340.223L428+323.707Z" opacity="1" fill="#cccccc"/>
<path d="M273.62+338.844L378.429+338.844L378.429+338.844L378.429+516.745L378.429+516.745L273.62+516.745L273.62+516.745L273.62+338.844L273.62+338.844Z" opacity="1" fill="#f2f2f2"/>
<path d="M314.302+473.304L333.609+473.304L333.609+473.304L333.609+516.745L333.609+516.745L314.302+516.745L314.302+516.745L314.302+473.304L314.302+473.304Z" opacity="1" fill="#cccccc"/>
<path d="M293.616+485.716L293.616+478.821L285.342+478.821L285.342+485.716L292.927+485.716L293.616+485.716Z" opacity="1" fill="#3f3d56"/>
<path d="M292.927+491.232L285.342+491.232L285.342+498.128L293.616+498.128L293.616+491.232L292.927+491.232Z" opacity="1" fill="#3f3d56"/>
<path d="M299.132+478.821L307.407+478.821L307.407+478.821L307.407+485.716L307.407+485.716L299.132+485.716L299.132+485.716L299.132+478.821L299.132+478.821Z" opacity="1" fill="#3f3d56"/>
<path d="M299.132+491.232L307.407+491.232L307.407+491.232L307.407+498.128L307.407+498.128L299.132+498.128L299.132+498.128L299.132+491.232L299.132+491.232Z" opacity="1" fill="#3f3d56"/>
<path d="M350.158+485.716L350.158+478.821L341.884+478.821L341.884+485.716L349.469+485.716L350.158+485.716Z" opacity="1" fill="#3f3d56"/>
<path d="M349.469+491.232L341.884+491.232L341.884+498.128L350.158+498.128L350.158+491.232L349.469+491.232Z" opacity="1" fill="#3f3d56"/>
<path d="M355.675+478.821L363.949+478.821L363.949+478.821L363.949+485.716L363.949+485.716L355.675+485.716L355.675+485.716L355.675+478.821L355.675+478.821Z" opacity="1" fill="#3f3d56"/>
<path d="M355.675+491.232L363.949+491.232L363.949+491.232L363.949+498.128L363.949+498.128L355.675+498.128L355.675+498.128L355.675+491.232L355.675+491.232Z" opacity="1" fill="#3f3d56"/>
<path d="M408.079+347.808L408.079+340.913L399.805+340.913L399.805+347.808L407.39+347.808L408.079+347.808Z" opacity="1" fill="#3f3d56"/>
<path d="M407.39+353.325L399.805+353.325L399.805+360.22L408.079+360.22L408.079+353.325L407.39+353.325Z" opacity="1" fill="#3f3d56"/>
<path d="M413.596+340.913L421.87+340.913L421.87+340.913L421.87+347.808L421.87+347.808L413.596+347.808L413.596+347.808L413.596+340.913L413.596+340.913Z" opacity="1" fill="#3f3d56"/>
<path d="M413.596+353.325L421.87+353.325L421.87+353.325L421.87+360.22L421.87+360.22L413.596+360.22L413.596+360.22L413.596+353.325L413.596+353.325Z" opacity="1" fill="#3f3d56"/>
<path d="M408.079+386.423L408.079+379.527L399.805+379.527L399.805+386.423L407.39+386.423L408.079+386.423Z" opacity="1" fill="#3f3d56"/>
<path d="M407.39+391.939L399.805+391.939L399.805+398.834L408.079+398.834L408.079+391.939L407.39+391.939Z" opacity="1" fill="#3f3d56"/>
<path d="M413.596+379.527L421.87+379.527L421.87+379.527L421.87+386.423L421.87+386.423L413.596+386.423L413.596+386.423L413.596+379.527L413.596+379.527Z" opacity="1" fill="#3f3d56"/>
<path d="M413.596+391.939L421.87+391.939L421.87+391.939L421.87+398.834L421.87+398.834L413.596+398.834L413.596+398.834L413.596+391.939L413.596+391.939Z" opacity="1" fill="#3f3d56"/>
<path d="M408.079+425.037L408.079+418.141L399.805+418.141L399.805+425.037L407.39+425.037L408.079+425.037Z" opacity="1" fill="#3f3d56"/>
<path d="M407.39+430.553L399.805+430.553L399.805+437.448L408.079+437.448L408.079+430.553L407.39+430.553Z" opacity="1" fill="#3f3d56"/>
<path d="M413.596+418.141L421.87+418.141L421.87+418.141L421.87+425.037L421.87+425.037L413.596+425.037L413.596+425.037L413.596+418.141L413.596+418.141Z" opacity="1" fill="#3f3d56"/>
<path d="M413.596+430.553L421.87+430.553L421.87+430.553L421.87+437.448L421.87+437.448L413.596+437.448L413.596+437.448L413.596+430.553L413.596+430.553Z" opacity="1" fill="#3f3d56"/>
<path d="M408.079+463.651L408.079+456.755L399.805+456.755L399.805+463.651L407.39+463.651L408.079+463.651Z" opacity="1" fill="#3f3d56"/>
<path d="M407.39+469.167L399.805+469.167L399.805+476.062L408.079+476.062L408.079+469.167L407.39+469.167Z" opacity="1" fill="#3f3d56"/>
<path d="M413.596+456.755L421.87+456.755L421.87+456.755L421.87+463.651L421.87+463.651L413.596+463.651L413.596+463.651L413.596+456.755L413.596+456.755Z" opacity="1" fill="#3f3d56"/>
<path d="M413.596+469.167L421.87+469.167L421.87+469.167L421.87+476.062L421.87+476.062L413.596+476.062L413.596+476.062L413.596+469.167L413.596+469.167Z" opacity="1" fill="#3f3d56"/>
<path d="M285.342+347.808L365.328+347.808L365.328+347.808L365.328+364.357L365.328+364.357L285.342+364.357L285.342+364.357L285.342+347.808L285.342+347.808Z" opacity="1" fill="#3f3d56"/>
<path d="M285.342+380.906L365.328+380.906L365.328+380.906L365.328+397.455L365.328+397.455L285.342+397.455L285.342+397.455L285.342+380.906L285.342+380.906Z" opacity="1" fill="#3f3d56"/>
<path d="M285.342+414.004L365.328+414.004L365.328+414.004L365.328+430.553L365.328+430.553L285.342+430.553L285.342+430.553L285.342+414.004L285.342+414.004Z" opacity="1" fill="#3f3d56"/>
<path d="M285.342+447.102L365.328+447.102L365.328+447.102L365.328+463.651L365.328+463.651L285.342+463.651L285.342+463.651L285.342+447.102L285.342+447.102Z" opacity="1" fill="#3f3d56"/>
<path d="M683.515+344.361L676.62+338.844L715.234+304.367L813.148+304.367L813.148+334.707L749.711+377.459L683.515+344.361Z" opacity="1" fill="#3f3d56"/>
<path d="M831+323.707L831+305.056L818+305.056L818+309.624L813.148+304.367L781.429+338.844L769.018+347.119L749.773+487.722L778.796+516.745L846.246+516.745L846.246+340.223L831+323.707Z" opacity="1" fill="#cccccc"/>
<path d="M676.62+338.844L781.429+338.844L781.429+338.844L781.429+516.745L781.429+516.745L676.62+516.745L676.62+516.745L676.62+338.844L676.62+338.844Z" opacity="1" fill="#f2f2f2"/>
<path d="M717.302+473.304L736.609+473.304L736.609+473.304L736.609+516.745L736.609+516.745L717.302+516.745L717.302+516.745L717.302+473.304L717.302+473.304Z" opacity="1" fill="#cccccc"/>
<path d="M696.616+485.716L696.616+478.821L688.342+478.821L688.342+485.716L695.927+485.716L696.616+485.716Z" opacity="1" fill="#3f3d56"/>
<path d="M695.927+491.232L688.342+491.232L688.342+498.128L696.616+498.128L696.616+491.232L695.927+491.232Z" opacity="1" fill="#3f3d56"/>
<path d="M702.132+478.821L710.407+478.821L710.407+478.821L710.407+485.716L710.407+485.716L702.132+485.716L702.132+485.716L702.132+478.821L702.132+478.821Z" opacity="1" fill="#3f3d56"/>
<path d="M702.132+491.232L710.407+491.232L710.407+491.232L710.407+498.128L710.407+498.128L702.132+498.128L702.132+498.128L702.132+491.232L702.132+491.232Z" opacity="1" fill="#3f3d56"/>
<path d="M753.158+485.716L753.158+478.821L744.884+478.821L744.884+485.716L752.469+485.716L753.158+485.716Z" opacity="1" fill="#3f3d56"/>
<path d="M752.469+491.232L744.884+491.232L744.884+498.128L753.158+498.128L753.158+491.232L752.469+491.232Z" opacity="1" fill="#3f3d56"/>
<path d="M758.675+478.821L766.949+478.821L766.949+478.821L766.949+485.716L766.949+485.716L758.675+485.716L758.675+485.716L758.675+478.821L758.675+478.821Z" opacity="1" fill="#3f3d56"/>
<path d="M758.675+491.232L766.949+491.232L766.949+491.232L766.949+498.128L766.949+498.128L758.675+498.128L758.675+498.128L758.675+491.232L758.675+491.232Z" opacity="1" fill="#3f3d56"/>
<path d="M811.079+347.808L811.079+340.913L802.805+340.913L802.805+347.808L810.39+347.808L811.079+347.808Z" opacity="1" fill="#3f3d56"/>
<path d="M810.39+353.325L802.805+353.325L802.805+360.22L811.079+360.22L811.079+353.325L810.39+353.325Z" opacity="1" fill="#3f3d56"/>
<path d="M816.596+340.913L824.87+340.913L824.87+340.913L824.87+347.808L824.87+347.808L816.596+347.808L816.596+347.808L816.596+340.913L816.596+340.913Z" opacity="1" fill="#3f3d56"/>
<path d="M816.596+353.325L824.87+353.325L824.87+353.325L824.87+360.22L824.87+360.22L816.596+360.22L816.596+360.22L816.596+353.325L816.596+353.325Z" opacity="1" fill="#3f3d56"/>
<path d="M811.079+386.423L811.079+379.527L802.805+379.527L802.805+386.423L810.39+386.423L811.079+386.423Z" opacity="1" fill="#3f3d56"/>
<path d="M810.39+391.939L802.805+391.939L802.805+398.834L811.079+398.834L811.079+391.939L810.39+391.939Z" opacity="1" fill="#3f3d56"/>
<path d="M816.596+379.527L824.87+379.527L824.87+379.527L824.87+386.423L824.87+386.423L816.596+386.423L816.596+386.423L816.596+379.527L816.596+379.527Z" opacity="1" fill="#3f3d56"/>
<path d="M816.596+391.939L824.87+391.939L824.87+391.939L824.87+398.834L824.87+398.834L816.596+398.834L816.596+398.834L816.596+391.939L816.596+391.939Z" opacity="1" fill="#3f3d56"/>
<path d="M811.079+425.037L811.079+418.141L802.805+418.141L802.805+425.037L810.39+425.037L811.079+425.037Z" opacity="1" fill="#3f3d56"/>
<path d="M810.39+430.553L802.805+430.553L802.805+437.448L811.079+437.448L811.079+430.553L810.39+430.553Z" opacity="1" fill="#3f3d56"/>
<path d="M816.596+418.141L824.87+418.141L824.87+418.141L824.87+425.037L824.87+425.037L816.596+425.037L816.596+425.037L816.596+418.141L816.596+418.141Z" opacity="1" fill="#3f3d56"/>
<path d="M816.596+430.553L824.87+430.553L824.87+430.553L824.87+437.448L824.87+437.448L816.596+437.448L816.596+437.448L816.596+430.553L816.596+430.553Z" opacity="1" fill="#3f3d56"/>
<path d="M811.079+463.651L811.079+456.755L802.805+456.755L802.805+463.651L810.39+463.651L811.079+463.651Z" opacity="1" fill="#3f3d56"/>
<path d="M810.39+469.167L802.805+469.167L802.805+476.062L811.079+476.062L811.079+469.167L810.39+469.167Z" opacity="1" fill="#3f3d56"/>
<path d="M816.596+456.755L824.87+456.755L824.87+456.755L824.87+463.651L824.87+463.651L816.596+463.651L816.596+463.651L816.596+456.755L816.596+456.755Z" opacity="1" fill="#3f3d56"/>
<path d="M816.596+469.167L824.87+469.167L824.87+469.167L824.87+476.062L824.87+476.062L816.596+476.062L816.596+476.062L816.596+469.167L816.596+469.167Z" opacity="1" fill="#3f3d56"/>
<path d="M688.342+347.808L768.328+347.808L768.328+347.808L768.328+364.357L768.328+364.357L688.342+364.357L688.342+364.357L688.342+347.808L688.342+347.808Z" opacity="1" fill="#3f3d56"/>
<path d="M688.342+380.906L768.328+380.906L768.328+380.906L768.328+397.455L768.328+397.455L688.342+397.455L688.342+397.455L688.342+380.906L688.342+380.906Z" opacity="1" fill="#3f3d56"/>
<path d="M688.342+414.004L768.328+414.004L768.328+414.004L768.328+430.553L768.328+430.553L688.342+430.553L688.342+430.553L688.342+414.004L688.342+414.004Z" opacity="1" fill="#3f3d56"/>
<path d="M688.342+447.102L768.328+447.102L768.328+447.102L768.328+463.651L768.328+463.651L688.342+463.651L688.342+463.651L688.342+447.102L688.342+447.102Z" opacity="1" fill="#3f3d56"/>
<path d="M904.515+344.361L897.62+338.844L936.234+304.367L1034.15+304.367L1034.15+334.707L970.711+377.459L904.515+344.361Z" opacity="1" fill="#3f3d56"/>
<path d="M1052+323.707L1052+305.056L1039+305.056L1039+309.624L1034.15+304.367L1002.43+338.844L990.018+347.119L970.773+487.722L999.796+516.745L1067.25+516.745L1067.25+340.223L1052+323.707Z" opacity="1" fill="#cccccc"/>
<path d="M897.62+338.844L1002.43+338.844L1002.43+338.844L1002.43+516.745L1002.43+516.745L897.62+516.745L897.62+516.745L897.62+338.844L897.62+338.844Z" opacity="1" fill="#f2f2f2"/>
<path d="M938.302+473.304L957.609+473.304L957.609+473.304L957.609+516.745L957.609+516.745L938.302+516.745L938.302+516.745L938.302+473.304L938.302+473.304Z" opacity="1" fill="#cccccc"/>
<path d="M917.616+485.716L917.616+478.821L909.342+478.821L909.342+485.716L916.927+485.716L917.616+485.716Z" opacity="1" fill="#3f3d56"/>
<path d="M916.927+491.232L909.342+491.232L909.342+498.128L917.616+498.128L917.616+491.232L916.927+491.232Z" opacity="1" fill="#3f3d56"/>
<path d="M923.132+478.821L931.407+478.821L931.407+478.821L931.407+485.716L931.407+485.716L923.132+485.716L923.132+485.716L923.132+478.821L923.132+478.821Z" opacity="1" fill="#3f3d56"/>
<path d="M923.132+491.232L931.407+491.232L931.407+491.232L931.407+498.128L931.407+498.128L923.132+498.128L923.132+498.128L923.132+491.232L923.132+491.232Z" opacity="1" fill="#3f3d56"/>
<path d="M974.158+485.716L974.158+478.821L965.884+478.821L965.884+485.716L973.469+485.716L974.158+485.716Z" opacity="1" fill="#3f3d56"/>
<path d="M973.469+491.232L965.884+491.232L965.884+498.128L974.158+498.128L974.158+491.232L973.469+491.232Z" opacity="1" fill="#3f3d56"/>
<path d="M979.675+478.821L987.949+478.821L987.949+478.821L987.949+485.716L987.949+485.716L979.675+485.716L979.675+485.716L979.675+478.821L979.675+478.821Z" opacity="1" fill="#3f3d56"/>
<path d="M979.675+491.232L987.949+491.232L987.949+491.232L987.949+498.128L987.949+498.128L979.675+498.128L979.675+498.128L979.675+491.232L979.675+491.232Z" opacity="1" fill="#3f3d56"/>
<path d="M1032.08+347.808L1032.08+340.913L1023.8+340.913L1023.8+347.808L1031.39+347.808L1032.08+347.808Z" opacity="1" fill="#3f3d56"/>
<path d="M1031.39+353.325L1023.8+353.325L1023.8+360.22L1032.08+360.22L1032.08+353.325L1031.39+353.325Z" opacity="1" fill="#3f3d56"/>
<path d="M1037.6+340.913L1045.87+340.913L1045.87+340.913L1045.87+347.808L1045.87+347.808L1037.6+347.808L1037.6+347.808L1037.6+340.913L1037.6+340.913Z" opacity="1" fill="#3f3d56"/>
<path d="M1037.6+353.325L1045.87+353.325L1045.87+353.325L1045.87+360.22L1045.87+360.22L1037.6+360.22L1037.6+360.22L1037.6+353.325L1037.6+353.325Z" opacity="1" fill="#3f3d56"/>
<path d="M1032.08+386.423L1032.08+379.527L1023.8+379.527L1023.8+386.423L1031.39+386.423L1032.08+386.423Z" opacity="1" fill="#3f3d56"/>
<path d="M1031.39+391.939L1023.8+391.939L1023.8+398.834L1032.08+398.834L1032.08+391.939L1031.39+391.939Z" opacity="1" fill="#3f3d56"/>
<path d="M1037.6+379.527L1045.87+379.527L1045.87+379.527L1045.87+386.423L1045.87+386.423L1037.6+386.423L1037.6+386.423L1037.6+379.527L1037.6+379.527Z" opacity="1" fill="#3f3d56"/>
<path d="M1037.6+391.939L1045.87+391.939L1045.87+391.939L1045.87+398.834L1045.87+398.834L1037.6+398.834L1037.6+398.834L1037.6+391.939L1037.6+391.939Z" opacity="1" fill="#3f3d56"/>
<path d="M1032.08+425.037L1032.08+418.141L1023.8+418.141L1023.8+425.037L1031.39+425.037L1032.08+425.037Z" opacity="1" fill="#3f3d56"/>
<path d="M1031.39+430.553L1023.8+430.553L1023.8+437.448L1032.08+437.448L1032.08+430.553L1031.39+430.553Z" opacity="1" fill="#3f3d56"/>
<path d="M1037.6+418.141L1045.87+418.141L1045.87+418.141L1045.87+425.037L1045.87+425.037L1037.6+425.037L1037.6+425.037L1037.6+418.141L1037.6+418.141Z" opacity="1" fill="#3f3d56"/>
<path d="M1037.6+430.553L1045.87+430.553L1045.87+430.553L1045.87+437.448L1045.87+437.448L1037.6+437.448L1037.6+437.448L1037.6+430.553L1037.6+430.553Z" opacity="1" fill="#3f3d56"/>
<path d="M1032.08+463.651L1032.08+456.755L1023.8+456.755L1023.8+463.651L1031.39+463.651L1032.08+463.651Z" opacity="1" fill="#3f3d56"/>
<path d="M1031.39+469.167L1023.8+469.167L1023.8+476.062L1032.08+476.062L1032.08+469.167L1031.39+469.167Z" opacity="1" fill="#3f3d56"/>
<path d="M1037.6+456.755L1045.87+456.755L1045.87+456.755L1045.87+463.651L1045.87+463.651L1037.6+463.651L1037.6+463.651L1037.6+456.755L1037.6+456.755Z" opacity="1" fill="#3f3d56"/>
<path d="M1037.6+469.167L1045.87+469.167L1045.87+469.167L1045.87+476.062L1045.87+476.062L1037.6+476.062L1037.6+476.062L1037.6+469.167L1037.6+469.167Z" opacity="1" fill="#3f3d56"/>
<path d="M909.342+347.808L989.328+347.808L989.328+347.808L989.328+364.357L989.328+364.357L909.342+364.357L909.342+364.357L909.342+347.808L909.342+347.808Z" opacity="1" fill="#3f3d56"/>
<path d="M909.342+380.906L989.328+380.906L989.328+380.906L989.328+397.455L989.328+397.455L909.342+397.455L909.342+397.455L909.342+380.906L909.342+380.906Z" opacity="1" fill="#3f3d56"/>
<path d="M909.342+414.004L989.328+414.004L989.328+414.004L989.328+430.553L989.328+430.553L909.342+430.553L909.342+430.553L909.342+414.004L909.342+414.004Z" opacity="1" fill="#3f3d56"/>
<path d="M909.342+447.102L989.328+447.102L989.328+447.102L989.328+463.651L989.328+463.651L909.342+463.651L909.342+463.651L909.342+447.102L909.342+447.102Z" opacity="1" fill="#3f3d56"/>
<path d="M0+516.057L1137+516.057L1137+516.057L1137+518.057L1137+518.057L0+518.057L0+518.057L0+516.057L0+516.057Z" opacity="1" fill="#3f3d56"/>
<path d="M252+437.057L254+437.057L254+437.057L254+516.057L254+516.057L252+516.057L252+516.057L252+437.057L252+437.057Z" opacity="1" fill="#3f3d56"/>
<path d="M272.458+447.124C272.585+474.749+253.15+497.233+253.15+497.233C253.15+497.233+233.508+474.929+233.381+447.304C233.254+419.68+252.689+397.196+252.689+397.196C252.689+397.196+272.33+419.5+272.458+447.124Z" opacity="1" fill="#0066cc"/>
<path d="M452+437.057L454+437.057L454+437.057L454+516.057L454+516.057L452+516.057L452+516.057L452+437.057L452+437.057Z" opacity="1" fill="#3f3d56"/>
<path d="M472.458+447.124C472.585+474.749+453.15+497.233+453.15+497.233C453.15+497.233+433.508+474.929+433.381+447.304C433.254+419.68+452.689+397.196+452.689+397.196C452.689+397.196+472.33+419.5+472.458+447.124Z" opacity="1" fill="#0066cc"/>
<path d="M851+437.057L853+437.057L853+437.057L853+516.057L853+516.057L851+516.057L851+516.057L851+437.057L851+437.057Z" opacity="1" fill="#3f3d56"/>
<path d="M871.458+447.124C871.585+474.749+852.15+497.233+852.15+497.233C852.15+497.233+832.508+474.929+832.381+447.304C832.254+419.68+851.689+397.196+851.689+397.196C851.689+397.196+871.33+419.5+871.458+447.124Z" opacity="1" fill="#0066cc"/>
</g>
</svg>
