<svg version="1" xmlns="http://www.w3.org/2000/svg" width="1574.667" height="1574.667" viewBox="0 0 1181.000000 1181.000000"><path d="M0 590.5V1181h1181V0H0v590.5zm220.1-461.4l20 8.1 18-5.7c10-3.1 18.2-5.5 18.4-5.3.2.2-.7 6.2-2 13.3-1.3 7.2-4 22.2-6 33.5-4.6 26.1-5.6 31.2-6.7 32.6-1.4 1.9-11.7 4.3-25.3 5.9-33.5 3.9-94.3.3-99.4-5.9-.6-.7-2.1-7.7-3.5-15.7-1.4-7.9-3.2-18.2-4-22.9-4.3-23.7-6.9-40.1-6.5-40.5.3-.2 8.6 2.1 18.4 5.1l18 5.6 19.5-8c10.7-4.4 19.9-8.1 20.3-8.1.4-.1 9.8 3.5 20.8 8zm112.6 10.4c8.2 2.4 14.4 7.2 17.6 13.4 1.5 3 2.7 7 2.7 8.8v3.3h-9.9c-9.7 0-9.9 0-10.5-2.5-1.6-6.2-14.5-7.5-19.9-2-2.6 2.5-2.2 7.2.7 9 1.3.9 6.8 2.3 12.2 3.1 13 1.9 14.1 2.2 19.7 5.2 7.1 3.8 10.1 9.4 10.1 18.6.1 11.4-4.6 18-16.4 23.5-4.8 2.2-6.8 2.5-16 2.5-11.8 0-16.7-1.4-23.6-6.7-5-3.8-8.5-9.5-9.4-15.4l-.7-4.3h10.1c10.1 0 10.1 0 11.7 2.9 1.3 2.3 2.8 3.2 7.1 4.1 8.8 2 16.8-1.1 16.8-6.5 0-3.6-3.6-5.4-13.1-6.5-22.1-2.7-29.7-8.5-30.7-23.4-.2-4.2 0-8.8.7-10.8 2.4-7.3 11.4-14.7 20.5-16.9 5.3-1.2 15-1 20.3.6zM513.6 178c10.1 21.7 18.4 40.3 18.4 41.2 0 1.6-1.1 1.8-10.3 1.8h-10.4l-2.3-5-2.3-5h-32.3l-2.1 5-2.1 5h-10.6c-8.2 0-10.6-.3-10.6-1.3 0-.8 7.5-17.5 16.6-37.3 9.1-19.7 17.5-37.8 18.5-40.2 1.9-4.3 1.9-4.3 6.6-4l4.7.3 18.2 39.5zm-125.1-21.5c8.7 9.6 15.9 17.5 16.1 17.5.1 0 7.5-7.9 16.4-17.5 15.7-16.9 16.3-17.5 20.1-17.5h3.9v82h-22v-35.5l-8.8 8.8c-4.8 4.8-9.2 8.7-9.7 8.7-.6 0-4.7-3.9-9.2-8.7l-8.2-8.8-.1 17.7V221h-22v-82h3.9c3.8 0 4.4.5 19.6 17.5zM585 141.6c6.6 3.1 10.6 6.8 13.5 12.9 5.6 11.4 4 24.4-4 33.3l-4.3 4.8 7.9 12.4c4.3 6.9 7.8 13.3 7.8 14.2.1 1.6-1.1 1.8-11.8 1.8h-11.9l-6.9-12-6.8-11.9-5.2-.1H558v24h-21v-82.2l21.8.4c19.3.3 22.2.6 26.2 2.4zm80 6.9v9.5h-20v63h-21v-63h-20v-19h61v9.5zm-399 166V410h-26.5c-28.8 0-31.3.4-35.3 5.4-1.1 1.5-2.4 4.7-2.8 7.2-.8 5.5-2 5.7-2.9.4-.9-5.5-4.4-10.3-8.5-11.7-2.4-.8-12.2-1.2-29.7-1.2L134 410V219h132v95.5zm66.7-65c8.2 2.4 14.4 7.2 17.6 13.4 1.5 3 2.7 7 2.7 8.8v3.3h-9.9c-9.7 0-9.9 0-10.5-2.5-1.6-6.2-14.5-7.5-19.9-2-2.6 2.5-2.2 7.2.7 9 1.3.9 6.8 2.3 12.2 3.1 13 1.9 14.1 2.2 19.7 5.2 7.1 3.8 10.1 9.4 10.1 18.6.1 11.4-4.6 18-16.4 23.5-4.8 2.2-6.8 2.5-16 2.5-11.8 0-16.7-1.4-23.6-6.7-5-3.8-8.5-9.5-9.4-15.4l-.7-4.3h10.1c10.1 0 10.1 0 11.7 2.9 1.3 2.3 2.8 3.2 7.1 4.1 8.8 2 16.8-1.1 16.8-6.5 0-3.6-3.6-5.4-13.1-6.5-22.1-2.7-29.7-8.5-30.7-23.4-.2-4.2 0-8.8.7-10.8 2.4-7.3 11.4-14.7 20.5-16.9 5.3-1.2 15-1 20.3.6zM937 249c7.3 1.4 14.9 5 19.8 9.5 3.9 3.4 10.2 14.1 10.2 17.2 0 1-2.4 1.3-10.3 1.3h-10.3l-2.3-3.1c-2.9-4-7.7-5.9-14.3-5.9-10.7.1-17.7 6-19.8 16.8-1.5 8.2 1 18.2 5.6 22.3 5.3 4.6 17.2 6.6 22.7 3.8 2.7-1.4 7.7-6 7.7-7 0-.5-3.7-.9-8.2-1.1l-8.3-.3v-18l19.1-.3 19.2-.2.6 3.3c1.1 5.8-1.2 18.7-4.4 25.4-8.9 18-34.1 24.8-54.5 14.7-15.4-7.7-24-25.4-21.4-44.1 3.3-23.6 25.1-38.8 48.9-34.3zm92.1.9c16.3 5.1 26.6 18.2 28.5 36.2 2.8 28.2-20.6 50.5-48.6 46.2-14.2-2.2-24.6-9.7-30.7-22.1-3.8-7.5-3.8-7.7-3.8-19.6 0-10.3.4-13 2.3-17.8 4.3-10.6 16.5-21 27.8-23.7 6.9-1.6 17.8-1.2 24.5.8zm-614.9 2.4c10.1 4.9 14.9 12.8 15.6 25.3.6 10.2-1.4 16.5-7 22.9-6.6 7.5-10.3 8.9-24.5 9.3l-12.3.4V331h-21v-82.2l21.8.4c21.4.3 21.8.3 27.4 3.1zm59.8 6.2v9.5h-9v45h10v18h-42v-17.9l5.3-.3 5.2-.3.3-22.3.2-22.2h-10v-19h40v9.5zm30 22V312h29v19h-51v-40.3c0-22.2.3-40.7.7-41 .3-.4 5.3-.7 11-.7H504v31.5zm71.5-22v9l-4.7.3-4.8.3V313h10v18h-41v-18h10v-44.9l-4.7-.3-4.8-.3-.3-7.9c-.2-4.4-.1-8.5.2-9.3.5-1.1 4.4-1.3 20.3-1.1l19.8.3v9zm32 8c8.7 9.6 15.9 17.5 16.1 17.5.1 0 7.5-7.9 16.4-17.5 15.7-16.9 16.3-17.5 20.1-17.5h3.9v82h-22v-35.5l-8.8 8.8c-4.8 4.8-9.2 8.7-9.7 8.7-.6 0-4.7-3.9-9.2-8.7l-8.2-8.8-.1 17.7V331h-22v-82h3.9c3.8 0 4.4.5 19.6 17.5zM724 251.6c6 2.8 9.8 6.7 12.8 13.2 3.1 6.9 2.8 14.2-1.1 20l-2.6 3.9 2.8 2.1c4.6 3.4 6.4 8.4 5.9 16.7-.3 5.9-.9 8.1-3.3 12.1-3.4 5.4-7.8 8.8-13.4 10.4-2 .5-13.4 1-25.3 1H678v-40.3c0-22.2.3-40.7.7-41.1.4-.4 9.8-.6 20.8-.4 17.8.3 20.5.5 24.5 2.4zm80 6.9v9.5h-30v10.9l13.8.3 13.7.3.3 9.2.3 9.3H774v14h31v19h-52v-82h51v9.5zm61-6.9c6.6 3.1 10.6 6.8 13.5 12.9 5.6 11.4 4 24.4-4 33.3l-4.3 4.8 7.9 12.4c4.3 6.9 7.8 13.3 7.8 14.2.1 1.6-1.1 1.8-11.8 1.8h-11.9l-6.9-12-6.8-11.9-5.2-.1H838v24h-21v-82.2l21.8.4c19.3.3 22.2.6 26.2 2.4zM312.4 402.1l2.6 2V402c0-1.6.5-2.1 2.3-1.8 1.9.3 2.2 1 2.5 6 .3 5.5.2 5.8-2 5.8-1.5 0-2.9-1-4-2.9-1.9-3.4-8.1-5.7-12.3-4.7-7.1 1.8-11 10.8-8.3 19.1 2.9 8.8 14.3 11.3 21.2 4.6 2.9-2.8 3.4-3 4.6-1.6 1.1 1.3.9 2-1.1 4.1-3.6 3.9-7.6 5.6-13.4 5.6-10.5.1-17-6.9-17-18.3 0-5.4.5-7.2 2.6-10.5 1.5-2.3 4.2-4.8 6-5.7 4.9-2.4 13-2.2 16.3.4zm28.6-.1c0 1.5-.7 2-2.5 2H336v28h2.5c1.8 0 2.5.5 2.5 2 0 1.8-.7 2-7 2s-7-.2-7-2c0-1.5.7-2 2.5-2h2.5v-28h-2.5c-1.8 0-2.5-.5-2.5-2 0-1.8.7-2 7-2s7 .2 7 2zm39 3c0 4.7-.2 5-2.5 5-2.1 0-2.5-.5-2.5-3 0-2.9-.2-3-4.5-3H366v13.9c0 13.7 0 14 2.3 14.3 1.2.2 2.2 1 2.2 1.8 0 1.2-1.5 1.6-6.7 1.8-6.3.3-6.8.1-6.8-1.8 0-1.5.6-2 2.5-2h2.5v-28h-4.4c-4.1 0-4.5.2-4.8 2.7-.2 2-.9 2.9-2.5 3.1-2.1.3-2.3 0-2.3-4.7V400h32v5zm38.5 0c0 3.9-.3 4.5-2.2 4.8-2 .3-2.3-.1-2.3-2.7 0-3-.1-3.1-4.5-3.1H405v14c0 13.3.1 14 2 14 1.3 0 2 .7 2 2 0 1.8-.7 2-6.5 2s-6.5-.2-6.5-2c0-1.3.7-2 2-2 1.9 0 2-.7 2-14v-14h-4.5c-4.3 0-4.5.1-4.5 3 0 2.3-.4 3-2 3-1.7 0-2-.7-2-5v-5.1l15.8.3 15.7.3v4.5zm33.8 11.2c4.8 12.6 6.4 15.8 7.8 15.8 1.2 0 1.9.7 1.9 2 0 1.8-.7 2-6 2s-6-.2-6-2c0-1.1.7-2 1.5-2 1.8 0 1.8-.4.3-4.7l-1.2-3.3h-13.7l-1.5 3.5c-1.8 4.3-1.8 4.2.6 4.8 1.1.3 2 1.2 2 2.1 0 1.3-1.2 1.6-6.5 1.6-5.8 0-6.5-.2-6.5-2 0-1.3.7-2 2-2 1.1 0 2-.1 2-.3 0-.1 2.3-6.1 5-13.2 2.8-7.1 5-13.3 5-13.7 0-.4-.7-.8-1.5-.8s-1.5-.9-1.5-2.1c0-1.8.5-2 5.1-1.7l5.2.3 6 15.7zm63.7-11.1c0 4.3-.3 5-1.7 4.7-1.1-.2-1.9-1.4-2.1-3.1-.3-2.7-.4-2.7-7.8-2.7H497v11.9l6.7.3c5.5.2 6.8.6 7.1 2 .3 1.6-.5 1.8-6.7 1.8H497v12h7.5c7.3 0 7.5-.1 7.5-2.5 0-1.8.5-2.5 2-2.5 1.7 0 2 .7 2 4.5v4.5h-14c-13.3 0-14-.1-14-2 0-1.5.7-2 2.5-2h2.5v-28h-2.5c-1.8 0-2.5-.5-2.5-2 0-1.9.7-2 14-2h14v5.1zm39-3.1c0 1.3-.7 2-2 2-1.9 0-2 .7-2 14s.1 14 2 14c1.3 0 2 .7 2 2 0 1.9-.5 2.1-6.7 1.8-5.3-.2-6.8-.6-6.8-1.8 0-.8 1-1.6 2.3-1.8 2.2-.3 2.2-.6 2.2-14.3 0-13.1-.1-13.9-1.9-13.9-1.1 0-2.3-.5-2.6-1-1.3-2.1.8-3 7.1-3 5.7 0 6.4.2 6.4 2zm18.6 1.7c1.5 2.1 5.5 8.3 9 13.8l6.4 10v-11.8c0-11-.1-11.7-2-11.7-1.3 0-2-.7-2-2 0-1.9.5-2.1 6.8-1.8 5.2.2 6.7.6 6.7 1.8 0 .8-1 1.6-2.2 1.8-2.3.3-2.3.5-2.3 16.3V436h-2.5c-2.2 0-3.8-1.8-10.3-11.9-4.2-6.6-8.2-12.8-8.9-13.8-1-1.4-1.2.5-1.2 9.9-.1 11.3 0 11.7 2.1 12 1.3.2 2.4 1.1 2.6 2 .3 1.6-.5 1.8-6.7 1.8-6.4 0-7.1-.2-7.1-2 0-1.3.7-2 2-2 1.9 0 2-.7 2-14s-.1-14-2-14c-1.3 0-2-.7-2-2 0-1.7.7-2 4.5-2 4.1 0 4.8.4 7.1 3.7zm50.3 10.5l9.1 14.1v-12.1c0-11.7-.1-12.1-2.2-12.4-1.3-.2-2.3-1-2.3-1.8 0-1.2 1.5-1.6 6.8-1.8 6.2-.3 6.7-.1 6.7 1.8 0 1.3-.7 2-2 2-1.8 0-2 .8-2.2 15.7l-.3 15.8-2.6.3c-2.4.3-3.4-.9-10.9-12.7-4.5-7.2-8.4-13.1-8.6-13.1-.2 0-.4 4.9-.4 11 0 10.3.1 11 2 11 1.3 0 2 .7 2 2 0 1.9-.5 2.1-6.7 1.8-5.3-.2-6.8-.6-6.8-1.8 0-.8 1-1.6 2.3-1.8 2.2-.3 2.2-.6 2.2-14.3 0-13.1-.1-13.9-1.9-13.9-1.1 0-2.3-.5-2.6-1-1.2-1.9.6-3 5-3h4.3l9.1 14.2zm53-11.3c8.2 5.8 9.4 20.6 2.3 28.4-5 5.6-15.6 6.7-22.2 2.3-10.7-7.1-10.4-25 .6-31.4 5.3-3.1 14.4-2.7 19.3.7zm27.1-1c0 1.1-.8 2.1-1.9 2.3-1.7.3-1.6 1.1 2.3 11.3 2.4 6 4.6 11.9 5 13 .6 1.5 1.9-1 5.7-10.9 2.7-7.1 4.9-13.1 4.9-13.2 0-.2-.9-.4-2-.4-1.3 0-2-.7-2-2 0-1.8.7-2 6.5-2s6.5.2 6.5 2c0 1.3-.7 2-1.9 2-1.4 0-2.5 1.4-3.9 5.2-9.5 25.1-10.3 26.8-12.7 26.8-3 0-3 .1-9.6-17-4.6-11.9-6-14.6-7.7-14.8-1.4-.2-2.2-1.1-2.2-2.3 0-1.7.7-1.9 6.5-1.9s6.5.2 6.5 1.9zm52.7-.7c.4.7 3.3 7.8 6.3 15.8 4.7 12.2 5.9 14.6 7.8 14.8 1.4.2 2.2 1 2.2 2.3 0 1.7-.7 1.9-6.5 1.9s-6.5-.2-6.5-2c0-1.3.7-2 1.9-2 1.9 0 1.9-.3.7-3.8l-1.3-3.7-7-.3-7.1-.3-1.5 3.8c-1.4 3.6-1.4 3.8.4 4.1 1.1.2 1.9 1.2 1.9 2.3 0 1.7-.7 1.9-6.6 1.9-5.7 0-6.5-.2-6.2-1.8.2-.9 1.2-1.8 2.3-2 1.6-.2 3.1-3.2 7.2-14 3.9-10.5 4.8-13.8 3.7-14-.8-.2-1.4-1.2-1.4-2.3 0-1.6.7-1.9 4.4-1.9 2.5 0 4.8.6 5.3 1.2zm51.3.5c0 1.6-2.1 4.7-15.3 22.5l-5.8 7.8h8.6c8.4 0 8.5 0 8.5-2.5 0-1.8.5-2.5 2-2.5 1.7 0 2 .7 2 4.5v4.6l-13.7-.3c-11.7-.3-13.8-.5-13.7-1.9.1-.8 4.7-7.7 10.3-15.2 5.5-7.5 10.1-13.9 10.1-14.2 0-.3-3.6-.5-8-.5-7.9 0-8 0-8 2.6 0 2.1-.4 2.5-2.2 2.2-1.7-.2-2.4-1.1-2.6-3.1-.7-5.6-.4-5.7 14.3-5.7 11.9 0 13.5.2 13.5 1.7zm20.5.3c0 .8-1 1.6-2.2 1.8-2.3.3-2.3.6-2.3 14.2s0 13.9 2.2 14.2c1.3.2 2.4 1.1 2.6 2 .3 1.6-.5 1.8-6.7 1.8-6.4 0-7.1-.2-7.1-2 0-1.3.7-2 2-2 1.9 0 2-.7 2-14s-.1-14-2-14c-1.3 0-2-.7-2-2 0-1.9.5-2.1 6.8-1.8 5.2.2 6.7.6 6.7 1.8zm33.4.1c6 3.3 8.6 8.1 8.6 15.8 0 11.3-6.3 18.2-16.8 18.3-6.4.1-10.6-1.9-14.4-6.9-2.5-3.3-2.8-4.5-2.8-11.3 0-6.8.3-8.1 2.7-11.2 1.5-1.9 4.2-4.2 6-5.1 4.7-2.3 12.2-2.2 16.7.4zm33.7 11.2c4.4 7 8.4 13 8.7 13.4.4.3.7-4.6.7-11 0-11-.1-11.7-2-11.7-1.3 0-2-.7-2-2 0-1.8.7-2 6.5-2s6.5.2 6.5 2c0 1.3-.7 2-2 2-1.9 0-2 .7-2 16v16h-2.7c-2.5 0-3.8-1.6-11.5-13.7l-8.8-13.7v11.7c0 11 .1 11.7 2 11.7 1.3 0 2 .7 2 2 0 1.8-.7 2-6.5 2s-6.5-.2-6.5-2c0-1.3.7-2 2-2 1.9 0 2-.7 2-14s-.1-14-2-14c-1.4 0-2-.7-2-2.1 0-1.8.5-2 4.7-1.7l4.7.3 8.2 12.8zm53.4-8.2c0 4.3-.3 5-1.7 4.7-1.1-.2-1.9-1.4-2.1-3.1-.3-2.7-.4-2.7-7.8-2.7H930v11.9l6.7.3c5.5.2 6.8.6 7.1 2 .3 1.6-.5 1.8-6.7 1.8H930v12h7.5c7.3 0 7.5-.1 7.5-2.5 0-1.8.5-2.5 2-2.5 1.7 0 2 .7 2 4.5v4.5h-14c-13.3 0-14-.1-14-2 0-1.5.7-2 2.5-2h2.5v-28h-2.5c-1.8 0-2.5-.5-2.5-2 0-1.9.7-2 14-2h14v5.1zm-782.8 116c2.5 1.3 7.8 1.1 12.5-.6 4-1.4 4.7-1.3 9.4.6 4.9 1.9 5.5 1.9 9.7.4 2.5-.8 5.8-1.5 7.4-1.5 3.8 0 9.6 3 13.5 7.2 4.3 4.4 4.6 7.4 1 10.2-2.8 2.1-3.6 2.1-37.1 2.1-31 0-34.4-.2-36.9-1.8-3.6-2.4-3.5-5.8.5-10.3 5.9-6.7 14.1-9.3 20-6.3zm563.5 2.4c4.5 1.9 6.7 1.9 12.1-.2 4.2-1.6 4.7-1.5 9.9.2 4.7 1.6 6 1.7 9.6.6 7.7-2.3 9.3-2.3 13.4-.2 5.9 2.9 10 6.7 11.2 10.1.8 2.6.7 3.4-.8 4.9-3.2 3.2-11.3 4-41.6 3.7-24.3-.2-29.6-.5-32.7-1.9-6.5-2.8-4.6-8.6 4.5-14.7 6.5-4.4 8.9-4.8 14.4-2.5zm-229.6 56.2c4.6 1.7 5.1 1.7 10.5-.2 5.4-1.8 5.8-1.8 10.4-.2 5.7 2 8.7 2.1 12 .2 4.2-2.4 8.3-1.8 14.3 2.2 5.8 3.8 9.5 8.9 8.4 11.7-.4.9-2.4 2.4-4.4 3.3-3.2 1.4-8.4 1.6-34.8 1.7-32.5 0-37.4-.5-39.5-4.4-2-3.7 2.5-9.7 10.5-13.9 4.8-2.5 6.3-2.6 12.6-.4zm-349.4 55.5l2.3 2.1v-2.1c0-2.1.5-2.2 7-2.2 6.6 0 7 .1 7 2.3 0 1.7-4.1 5.9-15.6 16.2-8.6 7.7-16.6 14.8-17.7 15.7-2.1 1.7.6 1.8 54.3 1.8h56.5l8.7-9.8c4.9-5.3 12.3-13.5 16.7-18.2l7.9-8.5 2.6 2.4c2.6 2.4 2.6 2.4 2.6.3s.5-2.2 7-2.2h7V653.3l8 8.8 8 8.7v188.9l-57.7.5c-31.8.3-101.9.5-155.8.4l-98-.1v-191l56.5-.3 56.5-.2 16.5-18c9-9.9 16.6-18 16.9-18 .3 0 1.5 1 2.8 2.2zm246 21.1c13.6 24.4 21.8 46.7 26.4 71.2 2.6 14.1 3.7 41 1.9 48.6-3 13-10.5 22.9-20.8 27.7-12.6 5.8-28.6 1.8-37.8-9.5-7.9-9.6-11-23.3-10.1-43.3 1.4-27.7 9.9-58.5 23.7-85.5 5.1-10.1 10.1-18.5 11-18.5.3 0 2.8 4.2 5.7 9.3zm717.2 11.2c14.8 29.6 22.1 56.5 23.7 87.5 1 20.4-2.4 31.9-12.6 42.2-4.7 4.6-6.8 6-12.4 7.7-5.9 1.8-7.6 1.9-13.9 1.1-8.3-1.2-13.6-4-19.4-10.3-9.4-10.2-11.7-19.3-11-43.7.4-13.4 1.2-20.4 3.1-29.7 5.2-24.8 16.1-52.2 28.4-71.7l2.4-3.9 1.9 2.4c1 1.3 5.4 9.6 9.8 18.4zM641 730.9v9L625 766c-8.8 14.4-16 26.3-16 26.6 0 .2 25.3.3 56.2.2l56.1-.3 17.6-33.7 17.6-33.6 2.3 2.1 2.2 2V722h14v5.4c0 5.4-.5 6.3-17.6 34.3-9.7 15.8-17.9 29.3-18.1 30-.4 1.1 10.5 1.3 55.6 1.1l56.2-.3 17.7-33.8c17.1-32.6 17.8-33.7 19.4-31.7 2.3 2.8 2.8 2.5 2.8-1.5v-3.6l6.8.3 6.7.3.3 8.5.2 8.5-15.6 25.5c-8.6 14-15.9 26.1-16.1 26.8-.4 1 10.8 1.2 55.6 1l56.2-.3 17.7-33.7 17.6-33.7 2.3 2.1 2.3 2.1v-7.4l6.8.3 6.7.3.6 8.5c.4 5.2 3.2 19.2 7.3 35.9l6.6 27.3v65.5l-58.2.4c-32.1.3-69.5.5-83.3.4h-25l-1.7-10.5c-2.6-16.2-2.7-16 2.7-16 4.5 0 4.5 0 4.5-3.5s0-3.5-4.5-3.5c-4.2 0-4.5.2-4.5 2.7v2.8l-24-.3-24-.3V814h-23v18h-29.5l-17.4 14c-9.5 7.7-17.6 14.1-17.9 14.1-.4.1-43.9.3-96.7.4-64.9.2-96.6-.1-98-.8-1.1-.5-3.3-2.1-4.8-3.3l-2.9-2.4H475v-61l56.1-.2 56.2-.3 17.6-33.7 17.6-33.6 2.3 2.1 2.2 2V722h14v8.9zm-73 12c3.7 7.7 4 8.8 4 17.2v8.9l-23.7-.2-23.8-.3-.3-8.8-.3-8.7h30l4.7-8.6c2.5-4.7 4.8-8.3 5-8.1.3.2 2.2 4.1 4.4 8.6zm261.3-.7c3.4 7.7 3.7 9 3.7 17.5v9.3h-47v-18h29.8l4.4-8.5c2.3-4.7 4.5-8.5 4.8-8.5.3 0 2.3 3.7 4.3 8.2zm-126.4 19l.1 8.8h-48v-18h30l3.1-6.2c6.3-12.5 5.7-12.4 10.6-2.2 3.9 8.3 4.2 9.5 4.2 17.6zm257.1-18c3.8 7.7 4 8.7 4 17.5v9.3h-47v-18h29.5l4.5-8.5c2.5-4.7 4.6-8.5 4.8-8.5.1 0 2.1 3.7 4.2 8.2zM831 848.5V859h-60v-3.4c0-1.9-.5-3.6-1.1-3.8-.6-.2 2.5-3.3 6.8-7l7.8-6.7h23.3l23.2-.1v10.5zm37 0V859h-29v-21h29v10.5zm-503.1 3.1c2.2-2 4-2 6.7-.1 1.9 1.2 2.4 1.2 4 0 2.6-1.9 4.4-1.8 7.4.5 2.4 1.9 2.4 2 .3 2-1.6 0-2.3.8-2.8 3l-.7 3h-15.4c-17.7 0-18.3-.4-11.4-7.2l3.9-4 3.1 2.2c2.9 2 3.2 2.1 4.9.6zm729.9-1c1.2.8 2.7 1.2 3.2.9.6-.4 1 1.2 1 4.2v4.8l-5.3.3c-6.2.3-10.7-1.1-10.7-3.4 0-2 6.3-8.4 8.2-8.4.7 0 2.4.7 3.6 1.6zm14.8-.1c1.1-.8 2.6-1.5 3.5-1.5 2.7 0 7.9 5.5 7.9 8.3 0 3-2.2 3.7-11.4 3.6l-6.6-.1v-12l2.4 1.5c2 1.4 2.6 1.4 4.2.2zM764.3 857c-.3 1.2-1.4 2-2.5 2-1.9 0-1.9-.1.3-2 1.3-1 2.5-1.9 2.6-2 0 0-.1.9-.4 2zM451 881v18h-47v-36h47v18zm102.2-6.9c17.3 14.4 16.6 13.7 12.8 13.1l-3-.4V899h-98v-17.3c0-9.6.3-17.7.7-18 .3-.4 17.2-.7 37.4-.7h36.7l13.4 11.1zm-334.3 17.5c.9 2.5 1.1 5.4.7 7.7-.8 4.2-5.6 10.2-8.9 11.3-3 .9-3.7 2.2-3.7 6.9 0 2.2-.3 5-.6 6.2-.6 2.1-1 1.9-7-3.4-3.5-3.1-6.4-6-6.4-6.4 0-.3.9-.9 2-1.2 1.7-.4 1.9-1.1 1.4-3.1-.5-2.3-.2-2.8 3.8-4.5 6.1-2.6 8.8-6.2 8.8-11.7 0-4 .2-4.4 3.3-5.3 4.5-1.3 5-1 6.6 3.5zm362.6 6.5c.4.5-.8.9-2.4.9-1.8 0-3.1-.5-3.1-1.3 0-.6-.7-2.5-1.5-4l-1.4-2.8 3.9 3.1c2.2 1.7 4.2 3.6 4.5 4.1zm174.4 14c2.6 2.6 3.1 3.8 3.1 7.8 0 13.7-17.1 16.5-22 3.7-1.5-4.1-.3-8.5 3.2-11.8 2.4-2.3 3.9-2.8 7.8-2.8 4.1 0 5.3.5 7.9 3.1zm108.3-1.1c5.5 4.3 6.1 12.5 1.2 17.4-7.5 7.4-19.4 2-19.4-8.8 0-3 .7-4.5 3.4-7.2 2.9-2.9 4.1-3.4 7.9-3.4 2.9 0 5.3.7 6.9 2zm216.8 17.4c0 1.4 1 3 2.5 4 3.2 2.1 6 7.6 10.9 21.6l4.1 11.5 6.8.3 6.7.3v6.8l-5.4.3-5.4.3 2.9 9c4.4 13.3 7.9 26.7 7.3 27.6-.3.5-2.3 1.2-4.5 1.5-2.1.4-3.9 1.2-3.9 1.8 0 .6 2 8.3 4.5 17s4.4 16.1 4.1 16.3c-.2.3-2.1 1.1-4.2 1.8-4 1.3-9.2.7-15.5-2.1-3.6-1.6-3.7-1.9-7.5-14.9-2.2-7.3-4-13.2-4.2-13-.2.1.6 4.7 1.7 10.1 2.8 14.4 3.1 18 1.6 20.1-1.1 1.5-1.7 1.1-5.5-4.7-4-6.2-18.9-35.9-20.5-40.9-.7-2.2-.8-2.1-3.2 2-1.4 2.4-2.6 4.6-2.8 4.8-.4.4-7.5-3.8-7.5-4.5 0-.2 1.8-3.9 3.9-8.2 4.5-8.9 6.1-14 6.1-20V973H903v-7h151v-5.8c0-5.3.4-6.4 6.9-16.7 5.1-8.2 8-11.8 11.6-14.2 5.7-4 8.5-4.3 8.5-.9zm-867.3 16.3c2.3 7.6 4 13.9 3.8 14.1-.2.2-2.2-5.4-4.5-12.5-2.3-7-4.4-13.4-4.6-14.1-.3-.6-.2-1.2.3-1.2.4 0 2.7 6.2 5 13.7zM172 967.2c0 .7.3 2.3.6 3.5l.6 2.3H108v-7h32c24.9 0 32 .3 32 1.2zm145 2.3v3.5h-47c-36.9 0-47-.3-47-1.3 0-.6-.3-2.2-.6-3.5l-.6-2.2H317v3.5zm473 0v3.5H665v-7h125v3.5zM431 983c10.1 5.2 12.9 18.3 5.9 28-3.6 4.9-8.5 7.3-15.5 7.3-9.9 0-17.4-6.8-18.2-16.8-.6-6.8 1-11.3 5.2-15.4 6.4-6.2 14.4-7.3 22.6-3.1zm177.8-1.5c14.8 6.2 16.4 27.1 2.7 34.3-4.7 2.4-9.1 3.1-13.7 2-17.8-3.9-20-28.2-3.3-35.9 4.9-2.3 9.4-2.4 14.3-.4zM214.6 1022c1.9 5.3 1.7 10.4-.5 12.4-2.9 2.7-6.2.4-11-7.6l-2.2-3.7 4.8-2.5c2.6-1.4 5.4-2.4 6.2-2.3.8.1 2 1.8 2.7 3.7zm278.3 135.8c2.2 3.8 4.7 7.5 5.7 8.3 1.4 1.2 1.9 1 4-1.6 1.3-1.7 3.7-5.4 5.3-8.4l2.8-5.4 3.3 6.1c1.7 3.3 4.2 7 5.5 8.2l2.2 2.1 2.7-3.2c1.5-1.7 3.9-5.5 5.3-8.3l2.6-5.1 4.5 5c10.2 11.2 15.1 22.2 10.6 23.9-.9.3-17.7.6-37.4.6-30.4 0-35.9-.2-37-1.5-1.7-2.1-.6-6 3.7-12.5 3.4-5.1 11.2-15 11.9-15 .2 0 2.1 3.1 4.3 6.8z"/><path d="M189 127c-5.2 2.1-8.7 3.9-7.8 3.9 3.5.2 4.8 3 4.8 10.2v6.9h13v-12.5c0-6.9-.1-12.5-.2-12.4-.2 0-4.6 1.8-9.8 3.9zM201 135.6V148h12v-6.1c0-6.7 1.1-9.6 4.1-10.8 1.6-.5.1-1.5-7-4.3l-9.1-3.6v12.4zM125 129.3c0 .7 1 6.9 2.2 13.9l2.1 12.8 2.6-.7c1.4-.3 2.9-.7 3.2-.9.4-.2.1-3.2-.7-6.6-1.7-8.2-1.7-8.5.6-10.8 4.5-4.5 8.6-1.8 10.6 7.3.9 3.7 2.1 6.7 2.7 6.7.7-.1 3.5-.7 6.2-1.4l5-1.4-.3-4.3c-.2-2.4-.7-4.7-1-5-.4-.4-3.2-1.4-6.2-2.3-3-.9-10.3-3.1-16.2-5-6.9-2.2-10.8-3-10.8-2.3zM258 133.1c-8.6 2.8-16.1 5.7-16.8 6.7-.7.9-1.2 3.2-1 5.1.3 3.1.7 3.5 5.2 4.8 2.6.8 5.4 1.2 6 1 .6-.3 1.7-3.2 2.4-6.5 1.9-9 5.3-11.4 10.3-7.3 2.3 1.8 2.3 2 1.1 9.6-.7 4.3-1.1 7.9-1 8 .2.1 1.5.5 3 .9 2.5.6 2.8.3 3.3-3.1.8-4.9 3.4-19.2 4.1-22.1.2-1.2.1-2.2-.3-2.1-.5.1-7.8 2.3-16.3 5zM223.9 133.9c.6 1.1 1.1 4.7 1.1 8v6.1h6.4c6.3 0 6.4 0 7-3.1 1.1-5.9.8-6.6-3.6-8.2-2.4-.8-6-2.2-8.1-3.1-3.7-1.6-3.8-1.6-2.8.3zM167 135.9l-6.5 2.8.4 3.9c.1 2.1.5 4.2.8 4.6.2.5 3.3.8 6.8.8h6.3l.4-7.5c.2-4.6-.1-7.5-.7-7.5-.5.1-3.9 1.3-7.5 2.9z"/><path d="M177 134.9c-.5 1.1-1 4.5-1 7.5v5.6h9v-5.6c0-6.7-1.3-9.4-4.5-9.4-1.4 0-2.9.8-3.5 1.9zM215.7 133.6c-.4.4-.7 3.8-.7 7.6v6.8h8.1l-.3-7.3-.3-7.2-3-.3c-1.7-.2-3.4 0-3.8.4zM135.5 139.1c-.8 2.3 1.3 14.9 2.5 14.9.4 0 2.2-.5 4-1.1 3.1-1.1 3.2-1.3 2.6-5.3-1.3-8.3-2.5-10.6-5.6-10.6-2 0-3.1.6-3.5 2.1zM257.3 138.2c-.6.7-1.3 3.1-1.7 5.3-.3 2.2-.9 5-1.2 6.1-.4 1.7 0 2.3 1.9 2.8 1.4.3 3.2.9 4 1.2 1.2.4 1.8-.7 2.7-4.8 1.7-7.8 1.1-11.2-2.1-11.6-1.4-.2-3 .3-3.6 1zM174.7 149.7l-12.7.4.6 3.7c.3 2 .9 6.2 1.2 9.2l.7 5.5 5.3.3 5.2.3v-7.3c0-8.3.9-9.8 5.5-9.8s5.5 1.6 5.5 9.2v6.8h13v-19l-5.7.2c-3.2.1-11.5.4-18.6.5zM201 158.3v9.5l6 .4 6 .3v-6.7c0-7.5 1.4-9.8 6-9.8 4.2 0 6 3.2 6 10.7v6.3h9.8l.6-4.3c.3-2.3.8-6.6 1.2-9.5l.7-5.2h-9c-5 0-13.1-.3-18.1-.6l-9.2-.7v9.6zM156.9 150.4c-.2.2-6 1.9-12.9 3.6-6.9 1.8-12.9 3.5-13.3 3.9-.7.7 2 19.9 2.9 21 .1.2 1.9-.6 3.8-1.8l3.4-2.1-1.4-6.3c-1.7-7.1-1.3-10.2 1.7-11.8 4.8-2.5 7.8.5 9.7 9.6l.8 4 5-.3c2.7-.2 5.3-.7 5.7-1.1.7-.7-.4-10.4-1.8-16.9-.5-1.9-2.4-2.9-3.6-1.8zM239 150.6c0 .5-.6 4.8-1.4 9.6-1.4 9.8-1.9 9.1 6 10.3l4.1.6 1.2-5.7c.6-3.2 1.8-6.6 2.8-7.6 2.1-2.4 5.5-2.3 7.8.2 1.8 2 1.8 4.1 0 14-.6 3.2-.3 3.7 2.6 5.3 1.7 1 3.3 1.6 3.5 1.5.4-.4 3.4-17.9 3.4-19.8 0-1.2-3.3-2.4-12.7-4.8-7.1-1.7-13.8-3.5-15-3.8-1.3-.4-2.3-.2-2.3.2z"/><path d="M177.6 154.6c-1.1 1.1-1.6 3.5-1.6 8v6.5l4.3-.3 4.2-.3.3-6.1c.2-4.6-.1-6.6-1.3-7.8-2.1-2-3.9-2-5.9 0zM216.2 154.2c-.7.7-1.2 4-1.2 8v6.8h8v-6.8c0-6.9-1-9.2-4-9.2-.9 0-2.1.5-2.8 1.2zM140.3 159.6c-.5 1.5 1.1 13.1 2 14 .6.6 7.7-1.9 7.7-2.8 0-2.1-2.4-10.4-3.3-11.6-1.4-1.7-5.7-1.5-6.4.4zM251.9 160.7c-.6 1.6-1.4 4.7-1.6 6.9-.5 3.9-.4 4.2 2.8 5.3 1.8.6 3.6.8 4 .4 1.3-1.6 2.7-11.8 1.8-13.5-1.5-2.9-5.8-2.3-7 .9zM172.3 170.7l-7.2.4.5 3.2c.3 1.8 1.1 6.8 1.7 11.2l1.2 8 3.5.3 3.5.3-.3-6.3c-.3-7.9 1.2-11.2 5.4-11.6 4.9-.5 6.4 1.8 6.4 9.9v6.9h12v-23l-9.7.2c-5.4.1-13 .4-17 .5zM200.1 181.4l-.3 11.6H212v-6.3c0-7.5 1.8-10.7 5.9-10.7 4.6 0 6.1 2.7 6.1 10.8v7.2h6.8l1.7-11.1c.9-6.1 1.5-11.2 1.3-11.5-.2-.2-7.8-.6-16.9-1l-16.5-.7-.3 11.7zM157 171.7c-6.1 1.1-12.9 3.5-17.8 6.4l-5.4 3 .7 4.2c1.3 9 2.7 14.7 3.4 14.7 1.6 0 7.1-2.2 7.1-2.8-.1-.4-.7-3.2-1.4-6.2-.8-3.4-1-6.4-.5-7.8 1.5-4 7.9-4.9 9.8-1.3.5.9 1.5 4.4 2.2 7.7l1.2 6.1 5.1-.5c2.8-.2 5.2-.5 5.3-.6.1-.1-.6-5.3-1.5-11.6-1.8-12.4-1.9-12.5-8.2-11.3zM235.7 173.2c-.9 3.7-3 20.8-2.6 21.2.2.2 2.5.6 5.1.8l4.7.5 1.1-5.1c1.9-8.2 2-8.6 4.4-10.2 3-1.9 7.3-.4 8.1 2.9.4 1.3 0 5.1-.8 8.5l-1.4 6.1 3.4 1.2c1.9.6 3.6.9 3.8.7.5-.4 3.5-15.4 3.5-17.2 0-3.5-12.8-9.4-24.1-11-4.3-.6-4.7-.5-5.2 1.6z"/><path d="M180 177.8c-2.5.8-3 2.4-3 9.4 0 7.3.3 7.6 5.8 6.2 2-.6 2.2-1.2 2.2-7.5 0-5.5-.3-7-1.7-7.7-1-.5-2.5-.7-3.3-.4zM215.8 178.1c-1.4.8-1.8 2.4-1.8 7.8 0 6.3.2 6.9 2.3 7.5 5.5 1.4 5.7 1.2 5.7-6.9 0-6.3-.3-7.6-1.9-8.5-2.3-1.2-2.2-1.2-4.3.1zM145 182.5c-1 1.2-1 2.7 0 7.5.7 3.4 1.7 6.3 2.1 6.6.5.3 2.4.2 4.2-.1l3.4-.7-1.2-5.9c-.7-3.2-1.8-6.6-2.5-7.4-1.6-1.9-4.4-1.9-6 0zM248.2 182.2c-1.1 1.5-3.6 12.7-2.9 13.4.2.3 2 .7 3.9 1 3.5.6 3.5.5 4.7-3.9 1.6-6.4 1.4-10.4-.5-11.1-2.4-.9-4.1-.7-5.2.6zM163.5 196.6c-14.9 1.5-24.8 4.1-25.3 6.6-1.1 5.5 45.2 10.1 80.3 7.9 38-2.3 51.6-6.6 36.1-11.3-14.6-4.4-62.9-6.1-91.1-3.2zM486.7 180.8c-2 4.8-3.9 9.5-4.3 10.4-.6 1.6.2 1.8 8 1.8 4.7 0 8.6-.4 8.6-.8 0-.8-7.8-19.4-8.4-19.9-.1-.1-1.9 3.7-3.9 8.5zM558 168v10h8.6c8.1 0 8.7-.1 11.5-2.9 2.3-2.3 2.9-3.8 2.9-7.1s-.6-4.8-2.9-7.1c-2.8-2.8-3.4-2.9-11.5-2.9H558v10zM136 258.5V297l23.8-.2 23.7-.3.3-38.3.2-38.2h-48v38.5zm33.9-21.5c2.1-1.1 2.5-.8 2.2 2.2-.1.9.7 1.9 1.9 2.3 1.1.3 2 1 2 1.5 0 2.1-5.5 7.1-8.9 8.1-3.3 1-4.3 2.3-11.3 14.2-4.2 7.3-7.5 13.3-7.3 13.5.2.2 1.4-.3 2.7-1.1 1.2-.8 3.5-1.8 5.1-2.1 1.5-.4 4.6-2.3 6.8-4.3s4.2-3.3 4.6-2.9c1 1-6.9 7.4-10.7 8.7-4.3 1.4-11.8 6-12.4 7.6-.3.6 1.7.1 4.4-1.3 2.6-1.3 6.5-2.4 8.6-2.4 4 0 10.4 3.1 10.4 5 0 .6-1.3.1-2.8-1-5.1-3.8-12.3-2.7-20.8 3.1-5 3.4-5.2 2.9-2.4-5.1 2.4-6.8 2.5-14.1.4-20.4-2-5.8-1.1-7.2 1.2-2 1.2 2.6 1.8 6.6 1.8 11.5l.1 7.6 8.1-13.7c7.9-13.3 8-13.8 8-20.1 0-3.5.5-7.4 1.3-8.7 1.2-2.2 1.4-2.3 3.1-.7 1.5 1.3 2.3 1.4 3.9.5z"/><path d="M163.6 240.2c-.9 3.6-.7 8.6.5 9.3 1.6 1 6.6-1.4 8.4-4.1 1.5-2.3 1.4-2.4-.5-2.4-1.3 0-2-.7-2-2s-.5-1.8-1.5-1.4c-.8.4-2.1.1-2.9-.5-1.1-.9-1.5-.7-2 1.1z"/><path d="M185.7 243.2c-.4 12.8-.7 30.4-.7 39V298h-49v33h50.1l-.3 38.6-.3 38.6 3.8 1.3c4.7 1.6 7.6 4.1 9.2 7.9l1.2 2.9 2.3-4.1c2-3.6 5.4-6.2 10.2-7.6 1.5-.4 1.6-3.7 1.1-39l-.6-38.6H264v-32.5l-24.8.3-24.9.3-.6-12.8c-.4-7-.7-24.8-.7-39.6V220H186.3l-.6 23.2z"/><path d="M215 258.5V297h49v-77h-49v38.5zm22.5-11.3c-.5 4.5-.2 5.4 6.6 17 4 6.8 7.7 13 8.3 13.9.8 1.2 1.1-.2 1.1-6 0-5.1.6-8.9 1.8-11.5 2.3-5.3 3.4-3.8 1.2 1.6-2.4 5.8-2.2 13.9.5 21.6 1.2 3.5 2 6.5 1.8 6.8-.3.2-1.6-.4-2.9-1.4-1.3-1.1-4.4-2.9-6.8-4.2-5.3-2.6-12.9-2.4-16.1.5-1.2 1.1-2 1.3-2 .6 0-1.9 6.3-5.1 10.1-5.1 1.9 0 5.8 1.1 8.5 2.5 5.8 2.9 6.1 3 4.3.9-2-2.5-8.1-6.1-11.4-6.8-3.1-.7-13.9-9.5-11.8-9.6.6 0 3.3 1.8 5.8 4s5.4 4 6.3 4c.9 0 3.2.9 5 2 1.7 1.1 3.2 1.8 3.2 1.6 0-.2-3.6-6.5-8-13.9-6.1-10.3-8.6-13.6-10.5-14.1-3-.8-9.5-6.3-9.5-8.1 0-.7 1-1.5 2.1-1.8 1.5-.4 2-1.1 1.5-2.2-.9-2.5.3-3.6 2.4-2.2 1.6.9 2.3.8 3.7-.6 1.7-1.7 1.9-1.6 3.6 2 1.2 2.7 1.6 5.1 1.2 8.5z"/><path d="M233 238.9c0 .9-.8 1.1-2.4.7-2-.5-2.3-.3-1.9 1.4.4 1.5 0 2-1.6 2-2.9 0-2.6 1.4 1 4.5 4.6 3.8 7.3 3.1 7.7-2 .2-2.4-.3-4.8-1.2-6-1-1.3-1.5-1.5-1.6-.6zM154.8 332.7l-18.8.3V407.7l22.9.8c12.6.4 23.4.4 24 0 .8-.4 1.1-12.6 1.1-38.6V332l-5.2.2c-2.9.2-13.7.4-24 .5zm15.1 16.3c2.1-1.1 2.5-.8 2.2 2.2-.1.9.7 1.9 1.9 2.3 1.1.3 2 1 2 1.5 0 2.1-5.5 7.1-8.8 8-3.2.8-4.3 2.1-8.2 8.7-8.7 15-11 19.3-10 19.3.5 0 1.2-.4 1.5-1 .3-.5 2.4-1.4 4.6-2 2.2-.6 5.8-2.7 8-4.7s4.2-3.3 4.5-3c1.2 1.1-7.4 7.7-12.6 9.6-4.6 1.7-11 6.1-11 7.6 0 .2 2.3-.7 5.1-2.2 4.1-2 6.2-2.4 10-2.1 4.7.5 8.9 2.9 8.9 5.1 0 .6-.8.2-1.9-.7-5.1-4.6-12.6-3.8-21.6 2.4-5.1 3.5-5.3 3-2.5-5 2.4-6.8 2.5-14.1.4-20.4-2-5.8-1.1-7.2 1.2-2 1.2 2.6 1.8 6.6 1.8 11.6.1 4.2.2 7.6.2 7.5.1-.1 3.7-6.2 8-13.6 7.5-13 7.8-13.7 7.9-20 .1-3.6.7-7.6 1.4-8.9 1.2-2.2 1.4-2.3 3.1-.7 1.5 1.3 2.3 1.4 3.9.5z"/><path d="M163.6 351.6c-1 2.6-.7 9.2.5 9.9 1.6 1 6.6-1.4 8.4-4.1 1.5-2.3 1.4-2.4-.5-2.4-1.3 0-2-.7-2-1.9 0-1.4-.5-1.8-2-1.4-1.1.3-2 0-2-.6 0-1.7-1.7-1.3-2.4.5zM215 371v38h11.8c6.4 0 17.4-.3 24.5-.7l12.7-.6V333h-49v38zm22.5-11.8c-.5 4.4-.2 5.3 7.6 18.5 4.5 7.6 8.2 13.9 8.3 14 0 .1.1-3.3.1-7.5 0-5.2.6-9 1.8-11.6 2.3-5.3 3.4-3.8 1.2 1.6-2.3 5.7-2.1 13.9.4 21.2 1.2 3.3 2.1 6.3 2.1 6.7 0 .5-2.4-.6-5.2-2.5-8.8-5.5-15-6.3-20-2.6-2.1 1.6-2.8 1.7-2.8.6 0-1.9 6-4.6 10.2-4.6 1.8 0 5.8 1.1 8.8 2.5l5.5 2.5-3.9-3.5c-2.1-1.9-5.9-4.1-8.5-5-2.5-.9-6.6-3.3-9.1-5.5-5.9-5.2-3.6-5.2 2.6 0 2.7 2.2 5.5 4 6.4 4 .8 0 2.8.7 4.4 1.5 1.5.8 3 1.5 3.1 1.5.2 0-3.1-6-7.3-13.4-6.4-11.3-8.2-13.6-10.5-14.1-3.3-.8-9.7-6.1-9.7-8 0-.8.9-1.7 2-2 1.2-.4 2-1.4 1.9-2.3-.3-3 .1-3.3 2.2-2.1 1.7.9 2.5.8 3.8-.6 1.5-1.5 1.7-1.3 3.4 2.2 1.2 2.7 1.6 5.2 1.2 8.5z"/><path d="M233 350.9c0 .9-.8 1.1-2.4.7-2-.5-2.3-.3-1.9 1.4.4 1.6 0 2-1.7 2-1.3 0-2 .5-1.8 1.2.7 1.9 7 5.9 8.7 5.6 2.2-.4 2.7-7.7.7-10.3-1-1.3-1.5-1.5-1.6-.6zM1006.2 271.1c-6.4 3.2-9.6 8.5-10 16.9-.2 3.8.1 8.5.8 10.5 1.6 4.7 6.6 10.4 10.7 12.1 6.4 2.7 16.6 1.1 21.7-3.4 3.1-2.8 6.6-11.3 6.6-16.2 0-9.5-4.7-17.7-11.7-20.6-4.9-2.1-13.1-1.7-18.1.7zM386 279.5V291h8.4c9.9 0 11.2-.4 13-3.9 2.9-5.6 2.4-12.5-1.3-16.2-2.8-2.8-3.4-2.9-11.5-2.9H386v11.5zM699 274.5v6.5h7.9c7.1 0 8.2-.2 9.5-2.2 2.2-3.1 2-6.4-.6-8.8-1.8-1.6-3.5-2-9.5-2H699v6.5zM699 305.5v6.5h9.4c10.7 0 12.6-1 12.6-6.4s-2.3-6.6-12.8-6.6H699v6.5zM838 278v10h8.6c8.1 0 8.7-.1 11.5-2.9 2.3-2.3 2.9-3.8 2.9-7.1s-.6-4.8-2.9-7.1c-2.8-2.8-3.4-2.9-11.5-2.9H838v10zM440.8 413l-2.6 7H449l-2.5-6.7c-1.4-3.7-2.7-6.8-2.8-6.9-.2-.2-1.4 2.8-2.9 6.6zM660.2 406c-11.6 7.1-5.7 27 7.6 25.7 4.9-.5 7.9-2.8 9.8-7.4 2.9-6.8.8-14.9-4.8-18.3-4.2-2.5-8.4-2.5-12.6 0zM751.6 412.2c-1 2.9-2.1 5.9-2.3 6.5-.4.9.9 1.3 4.6 1.3 2.8 0 5.1-.3 5.1-.6 0-1.5-4.3-12.4-4.9-12.4-.3 0-1.5 2.4-2.5 5.2zM847.3 406c-11.2 6.8-6.6 25.9 6.2 26 3.5 0 8.9-3 10.4-5.8.6-1.1 1.3-3.7 1.6-5.8 1.9-11.7-8.9-20.1-18.2-14.4zM267 675.5c0 3.5 0 3.5 4.5 3.5s4.5 0 4.5-3.5 0-3.5-4.5-3.5-4.5 0-4.5 3.5zM281 675.5c0 3.5 0 3.5 4.5 3.5s4.5 0 4.5-3.5 0-3.5-4.5-3.5-4.5 0-4.5 3.5zM14 688v9h86v-18H14v9zM144 688v9h86.1l-.3-8.8-.3-8.7-42.7-.3-42.8-.2v9zM266.4 686.4c-.3.8-.4 2.5-.2 3.8.3 2 .9 2.3 4.8 2.3 4.5 0 4.5 0 4.5-3.5 0-3.4-.1-3.5-4.3-3.8-3-.2-4.4.1-4.8 1.2zM281.2 688.7c.3 3.7.4 3.8 4.6 4.1l4.2.3V685h-9.1l.3 3.7zM267 717v4.1l4.3-.3c4.1-.3 4.2-.4 4.2-3.8s-.1-3.5-4.2-3.8l-4.3-.3v4.1zM281.7 713.7c-.4.3-.7 2.1-.7 4 0 3.3.1 3.3 4.5 3.3h4.5v-4c0-4 0-4-3.8-4-2.1 0-4.2.3-4.5.7zM14 724v9h86v-18H14v9zM144 724v9l42.8-.2 42.7-.3.3-8.8.3-8.7H144v9zM266 730.5v3.5h10v-7h-10v3.5zM281 730.5c0 3.5 0 3.5 4.5 3.5s4.5 0 4.5-3.5 0-3.5-4.5-3.5-4.5 0-4.5 3.5zM14 759.5v8.5h86v-17H14v8.5zM144 759.5v8.5h86v-17h-86v8.5zM267 759.1v4l4.3-.3c4.1-.3 4.2-.4 4.5-4.1l.3-3.7H267v4.1zM281.2 758.7c.3 3.7.4 3.8 4.6 4.1l4.2.3V755h-9.1l.3 3.7zM266.4 769.4c-.3.8-.4 2.5-.2 3.8.3 2 .9 2.3 4.8 2.3 4.5 0 4.5 0 4.5-3.5 0-3.4-.1-3.5-4.3-3.8-3-.2-4.4.1-4.8 1.2zM281.7 768.7c-.4.3-.7 2.1-.7 4 0 3.3.1 3.3 4.5 3.3h4.5v-4c0-4 0-4-3.8-4-2.1 0-4.2.3-4.5.7zM14 795v9h86v-18H14v9zM144 795v9h86.1l-.3-8.8-.3-8.7-42.7-.3-42.8-.2v9zM267 800.5c0 3.5 0 3.5 4.5 3.5s4.5 0 4.5-3.5 0-3.5-4.5-3.5-4.5 0-4.5 3.5zM281 800.5c0 3.5 0 3.5 4.5 3.5s4.5 0 4.5-3.5 0-3.5-4.5-3.5-4.5 0-4.5 3.5zM266.2 813.7c.3 3.8.3 3.8 4.8 3.8s4.5 0 4.8-3.8l.3-3.7h-10.2l.3 3.7zM281 813.5c0 3.5 0 3.5 4.5 3.5s4.5 0 4.5-3.5 0-3.5-4.5-3.5-4.5 0-4.5 3.5zM14 824v4h9v-8h-9v4zM29 823.9v4.1h9.1l-.3-3.8c-.3-3.6-.4-3.7-4.5-4l-4.3-.3v4zM75 824v4.1l4.3-.3c4.1-.3 4.2-.4 4.2-3.8s-.1-3.5-4.2-3.8l-4.3-.3v4.1zM90 824v4h8v-8h-8v4zM144 823.9v4.1h9.1l-.3-3.8c-.3-3.6-.4-3.7-4.5-4l-4.3-.3v4zM159 824v4h8v-8h-8v4zM205 824v4h8v-8h-8v4zM219.7 820.7c-.4.3-.7 2.1-.7 4 0 3.3.1 3.3 4.5 3.3h4.5v-4c0-4 0-4-3.8-4-2.1 0-4.2.3-4.5.7zM14 837.5c0 3.5 0 3.5 4.5 3.5s4.5 0 4.5-3.5 0-3.5-4.5-3.5-4.5 0-4.5 3.5zM29 837.5c0 3.5 0 3.5 4.5 3.5s4.5 0 4.5-3.5 0-3.5-4.5-3.5-4.5 0-4.5 3.5zM75 837.5c0 3.4.1 3.5 4 3.5s4-.1 4-3.5-.1-3.5-4-3.5-4 .1-4 3.5zM90 837.5c0 3.4.1 3.5 4 3.5s4-.1 4-3.5-.1-3.5-4-3.5-4 .1-4 3.5zM144 837.5c0 3.5 0 3.5 4.5 3.5s4.5 0 4.5-3.5 0-3.5-4.5-3.5-4.5 0-4.5 3.5zM159 837.5c0 3.4.1 3.5 4 3.5s4-.1 4-3.5-.1-3.5-4-3.5-4 .1-4 3.5zM205 837.5c0 3.4.1 3.5 4 3.5s4-.1 4-3.5-.1-3.5-4-3.5-4 .1-4 3.5zM219 837.5c0 3.5 0 3.5 4.5 3.5s4.5 0 4.5-3.5 0-3.5-4.5-3.5-4.5 0-4.5 3.5zM485 817.5c0 3.5 0 3.5 4.5 3.5s4.5 0 4.5-3.5 0-3.5-4.5-3.5-4.5 0-4.5 3.5zM500 817.5c0 3.5 0 3.5 4.5 3.5s4.5 0 4.5-3.5 0-3.5-4.5-3.5-4.5 0-4.5 3.5zM548 824.5V835h24.1l-.3-10.3-.3-10.2-11.7-.3-11.8-.3v10.6zM619 817.5c0 3.5 0 3.5 4.5 3.5s4.5 0 4.5-3.5 0-3.5-4.5-3.5-4.5 0-4.5 3.5zM634 817.5c0 3.5 0 3.5 4.5 3.5s4.5 0 4.5-3.5 0-3.5-4.5-3.5-4.5 0-4.5 3.5zM682 824.5V835h24.1l-.3-10.3-.3-10.2-11.7-.3-11.8-.3v10.6zM749 817.5c0 3.5 0 3.5 4.5 3.5s4.5 0 4.5-3.5 0-3.5-4.5-3.5-4.5 0-4.5 3.5zM764 817.5c0 3.4.1 3.5 4 3.5s4-.1 4-3.5-.1-3.5-4-3.5-4 .1-4 3.5zM883 817.5c0 3.5 0 3.5 4.5 3.5s4.5 0 4.5-3.5 0-3.5-4.5-3.5-4.5 0-4.5 3.5zM898 817.5c0 3.4.1 3.5 4 3.5s4-.1 4-3.5-.1-3.5-4-3.5-4 .1-4 3.5zM946 824.5V835h23v-21h-23v10.5zM1008 817.9v4.1h9.1l-.3-3.8c-.3-3.6-.4-3.7-4.5-4l-4.3-.3v4zM1023 818v4.1l4.3-.3c4.1-.3 4.2-.4 4.2-3.8s-.1-3.5-4.2-3.8l-4.3-.3v4.1zM485 830.5c0 3.5 0 3.5 4.5 3.5s4.5 0 4.5-3.5 0-3.5-4.5-3.5-4.5 0-4.5 3.5zM500 830.5c0 3.5 0 3.5 4.5 3.5s4.5 0 4.5-3.5 0-3.5-4.5-3.5-4.5 0-4.5 3.5zM619 830.5c0 3.5 0 3.5 4.5 3.5s4.5 0 4.5-3.5 0-3.5-4.5-3.5-4.5 0-4.5 3.5zM634 830.5c0 3.5 0 3.5 4.5 3.5s4.5 0 4.5-3.5 0-3.5-4.5-3.5-4.5 0-4.5 3.5zM749 830.5c0 3.5 0 3.5 4.5 3.5s4.5 0 4.5-3.5 0-3.5-4.5-3.5-4.5 0-4.5 3.5zM764 830.5c0 3.4.1 3.5 4 3.5s4-.1 4-3.5-.1-3.5-4-3.5-4 .1-4 3.5zM898 830.5c0 3.4.1 3.5 4 3.5s4-.1 4-3.5-.1-3.5-4-3.5-4 .1-4 3.5zM1008 831.5c0 3.5 0 3.5 4.5 3.5s4.5 0 4.5-3.5 0-3.5-4.5-3.5-4.5 0-4.5 3.5zM1023 831.5c0 3.5 0 3.5 4.5 3.5s4.5 0 4.5-3.5 0-3.5-4.5-3.5-4.5 0-4.5 3.5zM533 757c0 1.3.7 2 2 2s2-.7 2-2-.7-2-2-2-2 .7-2 2zM540 757c0 1.3.7 2 2 2s2-.7 2-2-.7-2-2-2-2 .7-2 2zM533 763.5c0 .8.9 1.5 2 1.5s2-.7 2-1.5-.9-1.5-2-1.5-2 .7-2 1.5zM540 763.5c0 .8.9 1.5 2 1.5s2-.7 2-1.5-.9-1.5-2-1.5-2 .7-2 1.5zM794.4 756.1c-.9 1.5 1.2 3.3 3 2.6.9-.4 1.6-1.3 1.6-2.2 0-1.7-3.5-2.1-4.6-.4zM802 757.1c0 1.4.5 1.9 1.7 1.7 2.6-.5 2.9-3.8.4-3.8-1.5 0-2.1.6-2.1 2.1zM795 763.5c0 .8.9 1.5 2 1.5s2-.7 2-1.5-.9-1.5-2-1.5-2 .7-2 1.5zM802 763.5c0 .8.9 1.5 2 1.5s2-.7 2-1.5-.9-1.5-2-1.5-2 .7-2 1.5zM664 758c0 1.3.7 2 2 2s2-.7 2-2-.7-2-2-2-2 .7-2 2zM671 758c0 1.3.7 2 2 2s2-.7 2-2-.7-2-2-2-2 .7-2 2zM664 764.5c0 .8.9 1.5 2 1.5s2-.7 2-1.5-.9-1.5-2-1.5-2 .7-2 1.5zM671 764.5c0 .8.9 1.5 2 1.5s2-.7 2-1.5-.9-1.5-2-1.5-2 .7-2 1.5zM925 758c0 1.3.7 2 2 2s2-.7 2-2-.7-2-2-2-2 .7-2 2zM932.2 757.7c.5 2.6 3.8 2.9 3.8.4 0-1.5-.6-2.1-2.1-2.1-1.4 0-1.9.5-1.7 1.7zM925 764.5c0 .8.9 1.5 2 1.5s2-.7 2-1.5-.9-1.5-2-1.5-2 .7-2 1.5zM932 764.5c0 .8.9 1.5 2 1.5s2-.7 2-1.5-.9-1.5-2-1.5-2 .7-2 1.5z"/></svg>