<svg xmlns="http://www.w3.org/2000/svg" xmlns:xlink="http://www.w3.org/1999/xlink" width="180" height="180" version="1.1" viewBox="0 0 180 180"><title>icon</title><desc>Created with Sketch.</desc><g id="Upload" fill="none" fill-rule="evenodd" stroke="none" stroke-width="1"><g id="Artboard"><g id="icon"><rect id="Rectangle" width="180" height="180" x="0" y="0" fill="#D1E7FF"/><g id="Group-6-Copy" transform="translate(107.855175, 109.702248) rotate(-10.000000) translate(-107.855175, -109.702248) translate(48.355175, 35.202248)"><path id="Rectangle-3" fill="#66A5E3" d="M9.09485765,0.818376999 L89.0909206,0.818376999 L118.590921,30.418377 L118.590921,140.31444 C118.590921,145.011035 114.783578,148.818377 110.086984,148.818377 L6.26021198,148.818377 C3.12914883,148.818377 0.590920643,146.280149 0.590920643,143.149086 L0.590920643,9.32231401 C0.590920643,4.62571928 4.39826293,0.818376999 9.09485765,0.818376999 Z" opacity=".4"/><polygon id="Line-3" fill="#FFF" fill-rule="nonzero" points="21.057 73.858 21.057 65.355 70.863 65.355 70.863 73.858"/><polygon id="Line-3-Copy" fill="#FFF" fill-rule="nonzero" points="20.217 91.322 20.217 82.818 99.721 82.818 99.721 91.322"/><polygon id="Line-3-Copy-2" fill="#FFF" fill-rule="nonzero" points="20.393 107.6 20.393 99.096 99.897 99.096 99.897 107.6"/><polygon id="Rectangle-7" fill="#0059B3" points="92.304 27.475 118.595 53.746 95.246 53.738" opacity=".2" transform="translate(105.449361, 40.610535) scale(-1, 1) rotate(90.000000) translate(-105.449361, -40.610535)"/><path id="Rectangle-7" fill="#FFF" d="M89.0927528,0.842666647 L118.560625,30.3915947 L100.247733,30.6719146 C94.1805894,30.7647859 89.186911,25.9216815 89.0940397,19.8545382 C89.0931818,19.7984895 89.0927528,19.7424351 89.0927528,19.6863799 L89.0927528,0.842666647 Z"/></g></g></g></g></svg>